<svg xmlns="http://www.w3.org/2000/svg" xmlns:xlink="http://www.w3.org/1999/xlink" viewBox="0 0 708.66 708.66"><defs><style>.cls-1{fill:none;}.cls-2{isolation:isolate;}.cls-3{mix-blend-mode:multiply;}.cls-4{fill:#3d3d3d;}.cls-5{fill:#00ade4;}.cls-6{clip-path:url(#clip-path);}.cls-7{opacity:0.3;}.cls-8{fill:#fff;}.cls-9{clip-path:url(#clip-path-3);}</style><clipPath id="clip-path"><path class="cls-1" d="M100.85,221.5,99,218.85,16.86,300.5A56.47,56.47,0,0,0,4.37,319.2,61.66,61.66,0,0,0,0,341.87a59.62,59.62,0,0,0,.25,7.33,25.78,25.78,0,0,0,1.2,5.71A55.14,55.14,0,0,0,6,364.8q1.63,2.9,3.8,6.21h0l0,.05c1.27,2,2.67,4,4.25,6.25l4.14,5.74,12.05,17.19L41.57,389l2.19-2.22,7.09-7.08,1.32-1.34.07-.07.2-.2a.75.75,0,0,0,.07-.12A12.8,12.8,0,0,0,55,370.74c0-.32,0-.65.06-1,0-.15,0-.27,0-.42h0a16.81,16.81,0,0,0-2.08-7.9l-10.2-14.67a14.12,14.12,0,0,1-1.17-2.37,18.08,18.08,0,0,1-.8-2.8,13.3,13.3,0,0,1,.58-7.29A21.09,21.09,0,0,1,46.27,327l49.18-48.77A52,52,0,0,0,107,259.38C111.33,246.53,109.21,233.44,100.85,221.5Z"/></clipPath><clipPath id="clip-path-3"><path class="cls-1" d="M11.52,487.16l1.86,2.65,82.13-81.65A56.47,56.47,0,0,0,108,389.46a61.66,61.66,0,0,0,4.35-22.67,57.57,57.57,0,0,0-.26-7.33,26.41,26.41,0,0,0-1.19-5.71,54.57,54.57,0,0,0-4.54-9.89c-1.09-1.93-2.35-4-3.8-6.21h0l0,0c-1.27-2-2.68-4-4.26-6.25l-4.14-5.74-12-17.19L70.79,319.71l-2.19,2.22L61.51,329l-1.32,1.34-.06.07-.21.2a.75.75,0,0,1-.07.12,12.9,12.9,0,0,0-2.43,7.18c0,.32-.05.65-.06,1,0,.15,0,.27,0,.42h0a16.84,16.84,0,0,0,2.09,7.9l10.19,14.67a14.16,14.16,0,0,1,1.18,2.37,19.26,19.26,0,0,1,.8,2.8,13.4,13.4,0,0,1-.59,7.29,21.06,21.06,0,0,1-4.92,7.33L16.92,430.45A52,52,0,0,0,5.38,449.28C1,462.13,3.15,475.22,11.52,487.16Z"/></clipPath></defs><g class="cls-2"><g id="Layer_1" data-name="Layer 1"><g class="cls-3"><path class="cls-4" d="M216,409a54.57,54.57,0,0,1-21-3.89,65.16,65.16,0,0,1-18.13-11.67l4.72-5.43a68.76,68.76,0,0,0,8,6.47,44.52,44.52,0,0,0,16.89,7.08,51.11,51.11,0,0,0,10,.91,33,33,0,0,0,10-1.46,24,24,0,0,0,7.78-4,18.63,18.63,0,0,0,5-6.12,16.76,16.76,0,0,0,1.8-7.71v-.28a19.09,19.09,0,0,0-1.18-6.94,13.32,13.32,0,0,0-4.3-5.56,31.63,31.63,0,0,0-8.41-4.52,87.22,87.22,0,0,0-13.62-3.68,93,93,0,0,1-15-4.24,36.78,36.78,0,0,1-10.22-5.69,19.53,19.53,0,0,1-5.76-7.58,25.17,25.17,0,0,1-1.81-9.86v-.28A22,22,0,0,1,183,324.44a25.86,25.86,0,0,1,6.53-8.13,30.75,30.75,0,0,1,9.87-5.42,38.42,38.42,0,0,1,12.5-1.94,51.78,51.78,0,0,1,18.28,2.91,54.78,54.78,0,0,1,15.07,8.9l-4.58,5.69a41.78,41.78,0,0,0-29-11,30.66,30.66,0,0,0-9.8,1.46,23.87,23.87,0,0,0-7.5,4,17.41,17.41,0,0,0-4.8,5.83,15.66,15.66,0,0,0-1.66,7.09v.28a19.63,19.63,0,0,0,1.18,7,13.62,13.62,0,0,0,4.3,5.7,30.85,30.85,0,0,0,8.69,4.65,98.7,98.7,0,0,0,14.17,3.89q17,3.48,24.46,9.8t7.5,17v.28a24,24,0,0,1-2.43,10.77,25,25,0,0,1-6.67,8.4A31.12,31.12,0,0,1,229,407,41.28,41.28,0,0,1,216,409Z"/><path class="cls-4" d="M317.52,369.11l-41.68-58.78h9l36.41,52.25,36.54-52.25h8.61L324.75,369V407.6h-7.23Z"/><path class="cls-4" d="M399.22,310.33H406L473.14,395V310.33h6.95V407.6h-5.42l-68.5-86.43V407.6h-6.95Z"/><path class="cls-4" d="M522.89,310.33h69.19v6.54h-62v38.48h55.72v6.53H530.11v39.19h62.66v6.53H522.89Z"/><path class="cls-4" d="M661.28,358,623.9,310.33h8.62l33.2,42.8,33.08-42.8h8.47L670,357.85l38.63,49.75H700l-34.59-44.88L631,407.6h-8.48Z"/></g><path class="cls-5" d="M100.85,221.5,99,218.85,16.86,300.5A56.47,56.47,0,0,0,4.37,319.2,61.66,61.66,0,0,0,0,341.87a59.62,59.62,0,0,0,.25,7.33,25.78,25.78,0,0,0,1.2,5.71A55.14,55.14,0,0,0,6,364.8q1.63,2.9,3.8,6.21h0l0,.05c1.27,2,2.67,4,4.25,6.25l4.14,5.74,12.05,17.19L41.57,389l2.19-2.22,7.09-7.08,1.32-1.34.07-.07.2-.2a.75.75,0,0,0,.07-.12A12.8,12.8,0,0,0,55,370.74c0-.32,0-.65.06-1,0-.15,0-.27,0-.42h0a16.81,16.81,0,0,0-2.08-7.9l-10.2-14.67a14.12,14.12,0,0,1-1.17-2.37,18.08,18.08,0,0,1-.8-2.8,13.3,13.3,0,0,1,.58-7.29A21.09,21.09,0,0,1,46.27,327l49.18-48.77A52,52,0,0,0,107,259.38C111.33,246.53,109.21,233.44,100.85,221.5Z"/><path class="cls-5" d="M11.52,487.16l1.86,2.65,82.13-81.65A56.47,56.47,0,0,0,108,389.46a61.66,61.66,0,0,0,4.35-22.67,57.57,57.57,0,0,0-.26-7.33,26.41,26.41,0,0,0-1.19-5.71,54.57,54.57,0,0,0-4.54-9.89c-1.09-1.93-2.35-4-3.8-6.21h0l0,0c-1.27-2-2.68-4-4.26-6.25l-4.14-5.74-12-17.19L70.79,319.71l-2.19,2.22L61.51,329l-1.32,1.34-.06.07-.21.2a.75.75,0,0,1-.07.12,12.9,12.9,0,0,0-2.43,7.18c0,.32-.05.65-.06,1,0,.15,0,.27,0,.42h0a16.84,16.84,0,0,0,2.09,7.9l10.19,14.67a14.16,14.16,0,0,1,1.18,2.37,19.26,19.26,0,0,1,.8,2.8,13.4,13.4,0,0,1-.59,7.29,21.06,21.06,0,0,1-4.92,7.33L16.92,430.45A52,52,0,0,0,5.38,449.28C1,462.13,3.15,475.22,11.52,487.16Z"/><g class="cls-6"><g class="cls-7"><path class="cls-8" d="M-32.48,371.41a5.82,5.82,0,0,0-1.69,4.18,5.85,5.85,0,0,0,5.92,5.8,5.86,5.86,0,0,0,5.81-5.92c0-.06,0-.12,0-.18l40.58-7.11a5.85,5.85,0,0,0,8.73,3.18l10.33,12.29A5.86,5.86,0,1,0,46.88,390l15.44,5.67c0,.06,0,.11,0,.16a1.55,1.55,0,1,0,.28-.89l-15.44-5.67a6,6,0,0,0,.24-1.71,5.86,5.86,0,0,0-9-4.89L28.05,370.36a5.85,5.85,0,0,0-1-8.74L35.85,346a3.72,3.72,0,0,0,1.38.25A3.8,3.8,0,0,0,40.07,345l8.69,5.48a3.69,3.69,0,0,0-.32,1.56,3.83,3.83,0,1,0,3.79-3.87,3.79,3.79,0,0,0-2.84,1.33L40.7,344a4,4,0,0,0,.32-1.56,3.83,3.83,0,0,0-7.66.08,3.79,3.79,0,0,0,1.47,3L26.07,361a5.87,5.87,0,0,0-8.22,5.43c0,.06,0,.12,0,.18l-40.58,7.11a5.89,5.89,0,0,0-1.4-2.33l15.54-18.64a3.91,3.91,0,0,0,2,.56,3.83,3.83,0,0,0,3.79-3.87A3.83,3.83,0,0,0-5,346.05l7.09-24.67a4.8,4.8,0,0,0,.52.05,3.83,3.83,0,0,0-.07-7.66l-.21,0L-.8,299.74a3.8,3.8,0,0,0,2.44-3.59,3.83,3.83,0,0,0-3.06-3.71L.45,273.69a1.51,1.51,0,0,0,1.29-1.52,1.53,1.53,0,0,0-1.55-1.52,1.53,1.53,0,0,0-1.51,1.55,1.53,1.53,0,0,0,1,1.42L-2.2,292.36h0A3.81,3.81,0,0,0-6,295.85l-22.27,1.47a3.81,3.81,0,0,0-3.77-3,3.82,3.82,0,0,0-3.79,3.86,3.81,3.81,0,0,0,1.09,2.63l-3,3.56a1.38,1.38,0,0,0-.67-.15,1.52,1.52,0,0,0-1.51,1.54,1.52,1.52,0,0,0,1.54,1.52,1.53,1.53,0,0,0,1.52-1.55,1.55,1.55,0,0,0-.28-.87l3-3.54a3.78,3.78,0,0,0,2.18.65,3.81,3.81,0,0,0,3.75-3.49L-5.92,297a3.82,3.82,0,0,0,3.77,3l.21,0L1.19,314a3.81,3.81,0,0,0-.22,7l-7.1,24.68a3,3,0,0,0-.52-.05,3.83,3.83,0,0,0-3.79,3.87,3.8,3.8,0,0,0,1,2.48L-25,370.68a5.76,5.76,0,0,0-3.35-1,5.86,5.86,0,0,0-2.88.79L-52,343.64a5.85,5.85,0,0,0,1.69-4.18,5.86,5.86,0,0,0-4.2-5.57l3.92-17.5a1.53,1.53,0,0,0,1.48-1.54,1.53,1.53,0,0,0-1.55-1.52,1.53,1.53,0,0,0-1.52,1.55,1.56,1.56,0,0,0,.83,1.34l-3.92,17.51a6,6,0,0,0-1-.08,5.86,5.86,0,0,0-5.8,5.93,5.86,5.86,0,0,0,5.92,5.8,5.86,5.86,0,0,0,2.88-.79Z"/><path class="cls-8" d="M228.59,244.49a5.41,5.41,0,0,0-1.21.14l-8.15-24.74a3.8,3.8,0,0,0-.1-6.84l2.32-7.82a4.89,4.89,0,0,0,.55.05,3.83,3.83,0,1,0-2.82-6.46l-4.12-3.17a1.55,1.55,0,1,0-.48.62l4.13,3.17a3.79,3.79,0,0,0,1.62,5.46L218,212.72a2.56,2.56,0,0,0-.55-.05,3.83,3.83,0,1,0,.66,7.59L226.27,245a5.86,5.86,0,0,0-2.34,8.83l-20.26,19.52a5.85,5.85,0,0,0-8.69,1.6l-55.14-23.4a6.21,6.21,0,0,0,.22-1.62,5.85,5.85,0,0,0-1.14-3.39l29.18-27.94a5.85,5.85,0,0,0,9.52-4.64c0-.11,0-.23,0-.34l11.79-2.43a5.86,5.86,0,1,0,8.58-6.94L209.9,177a5.5,5.5,0,0,0,1.68.23,5.86,5.86,0,1,0-3.1-.85l-11.93,27.19a6.25,6.25,0,0,0-1.68-.23,5.88,5.88,0,0,0-5.81,5.93c0,.12,0,.23,0,.35l-11.79,2.42a5.86,5.86,0,0,0-5.31-3.92l-2.15-22.71a5.86,5.86,0,1,0-7.18-6l-26,1.37a3.91,3.91,0,1,0,0,1.17l25.2-1.33L67.18,205.45c-.09-.2-.18-.39-.28-.58l29.68-20.3a3.77,3.77,0,0,0,2.82,1.22A3.83,3.83,0,1,0,95.53,182a3.78,3.78,0,0,0,.39,1.61L66.24,203.9a5.88,5.88,0,0,0-4.54-2.09l-.31,0-5.32-26.91-1.53.31,5.32,26.9a5.86,5.86,0,0,0,2,11.41A5.8,5.8,0,0,0,65.75,212L86.51,229a5.82,5.82,0,0,0,.75,7.14L73,254.1a5.79,5.79,0,0,0-3.06-.84A5.87,5.87,0,1,0,70,265a5.8,5.8,0,0,0,4-1.64L93.42,278.8a5.83,5.83,0,0,0,.65,6.91L70.18,313.58a5.84,5.84,0,0,0-2.63-.92l0-9.73A3.85,3.85,0,1,0,63.6,301l-5.69,4.48a3.79,3.79,0,0,0-2.64-1,3.85,3.85,0,0,0-1.93.56L41.57,290.88a3.82,3.82,0,0,0-2.9-6.36h0l-1.38-12a1.51,1.51,0,0,0,1-1.44,1.53,1.53,0,1,0-1.75,1.53l1.38,12A3.85,3.85,0,0,0,35.75,286l-12.3-7.21a4.1,4.1,0,0,0,.27-1.45,3.83,3.83,0,1,0-3.79,3.87,3.78,3.78,0,0,0,2.91-1.42L35.15,287a3.62,3.62,0,0,0-.27,1.44,3.54,3.54,0,0,0,.16,1l-17.19,6.79a1.52,1.52,0,1,0,.3.89c0-.06,0-.11,0-.17l17.19-6.78a3.9,3.9,0,0,0,1.2,1.38l-14.1,28.83a5.86,5.86,0,1,0,3.82,5.43v-.07l35.13-5.51a5.86,5.86,0,1,0,10-5.58l23.89-27.86a5.87,5.87,0,1,0-.86-9.14L75,262.14a5.83,5.83,0,0,0-.8-7.07l14.28-17.94a5.72,5.72,0,0,0,3.07.83,5.78,5.78,0,0,0,3.9-1.55l12.37,11a3.83,3.83,0,1,0,3.18-1.75,3.78,3.78,0,0,0-2.39.89l-12.38-11a5.86,5.86,0,0,0-8.74-7.73L66.74,210.76a5.89,5.89,0,0,0,.88-3.14,4.89,4.89,0,0,0-.05-.66l95.51-25a3.1,3.1,0,0,0,.21.45l-14.46,9.33a3.81,3.81,0,0,0-6.68,2.57,3.83,3.83,0,1,0,7.66-.08,3.71,3.71,0,0,0-.33-1.52l14.44-9.32a5.8,5.8,0,0,0,4.36,2.2l2.15,22.71a5.87,5.87,0,0,0-4.54,5.77,6,6,0,0,0,1.13,3.4L137.85,245.4A5.86,5.86,0,1,0,133,255.72l-2,26.67a8.79,8.79,0,0,0-2.56,17.17L125.59,312a5.44,5.44,0,0,0-.57,0,5.87,5.87,0,1,0,5.35,8.38L160,332c0,.07,0,.13,0,.2a1.53,1.53,0,1,0,1.51-1.55,1.48,1.48,0,0,0-1.21.63l-29.61-11.7a5.72,5.72,0,0,0,.28-1.85,4.75,4.75,0,0,0,0-.54l51.63-10.62a3.8,3.8,0,1,0-.25-1.29c0,.05,0,.1,0,.15l-51.62,10.61a5.91,5.91,0,0,0-3.57-3.75l2.78-12.41a8.34,8.34,0,0,0,1.24.08,8.79,8.79,0,0,0,1.35-17.46l2-26.69a5.83,5.83,0,0,0,4.71-2.86l55.14,23.4a5.81,5.81,0,0,0-.21,1.62,5.87,5.87,0,0,0,4.7,5.69l-2.79,42.08a5.86,5.86,0,1,0,6,7.53l11.35,2.6a1.53,1.53,0,1,0,.17-.75l-11.36-2.61a6.4,6.4,0,0,0,.08-1,5.87,5.87,0,0,0-4.7-5.69l2.79-42.08a5.86,5.86,0,0,0,5-3.62l15.67,5.24s0,.07,0,.11a1.53,1.53,0,1,0,1.52-1.55,1.55,1.55,0,0,0-1.27.7l-15.67-5.24a6,6,0,0,0,.2-1.54,5.84,5.84,0,0,0-1.14-3.41L225,254.94a5.86,5.86,0,1,0,3.58-10.45ZM26,324.14a5.84,5.84,0,0,0-2.53-3.31L37.58,292a3.5,3.5,0,0,0,1.17.19,3.71,3.71,0,0,0,1.92-.56l11.77,14.16a3.83,3.83,0,1,0,6.69,2.49,3.67,3.67,0,0,0-.51-1.83L64.31,302a3.9,3.9,0,0,0,2,1l0,9.73a5.86,5.86,0,0,0-5.26,5.89s0,0,0,.07Z"/><path class="cls-8" d="M144.7,425.55a3.83,3.83,0,0,0-3.79,3.87,4,4,0,0,0,.3,1.42l-4.86,3a3.81,3.81,0,0,0-6.75,2.49.77.77,0,0,0,0,.15l-29.57,6.08a3.81,3.81,0,0,0-3.61-2.5l-.21,0-7.52-34.15a3.81,3.81,0,0,0,2.39-3l13,.66a1.53,1.53,0,1,0,0-.78l-13-.66a3.8,3.8,0,0,0-3.25-3.58l0-9.95A5.86,5.86,0,0,0,88.3,377l1.59-30.17a5.87,5.87,0,0,0,4.38-9.14L105.79,328a3.82,3.82,0,1,0-1.31-2.83,3.85,3.85,0,0,0,.56,1.93L93.52,336.8a5.87,5.87,0,0,0-8.91,7.56L60.54,366.48a5.85,5.85,0,1,0,1.05,1.14L85.67,345.5a5.8,5.8,0,0,0,2.67,1.26l-1.59,30.17a5.86,5.86,0,0,0-.08,11.68l.06,9.95a3.8,3.8,0,0,0-2.57,5.9l-5.91,4.92a1.5,1.5,0,0,0-.9-.28,1.53,1.53,0,1,0,1.54,1.51,1.49,1.49,0,0,0-.14-.63l5.9-4.92a3.84,3.84,0,0,0,2.72,1.09l.21,0,7.52,34.15a3.81,3.81,0,0,0-.87,6.65L88,457.75a1.42,1.42,0,0,0-.42-.06,1.54,1.54,0,1,0,1.55,1.52,1.52,1.52,0,0,0-.45-1.07l6.27-10.82a3.9,3.9,0,0,0,1.6.35,3.71,3.71,0,0,0,1.79-.49l8.58,12.51a1.51,1.51,0,0,0-.37,1,1.53,1.53,0,1,0,1.51-1.55,1.58,1.58,0,0,0-.49.1l-8.59-12.51a3.76,3.76,0,0,0,1.36-2.94c0-.05,0-.1,0-.15l29.56-6.08a3.93,3.93,0,0,0,.91,1.42l-7.32,10.3a3.88,3.88,0,0,0-1.74-.42,3.83,3.83,0,0,0,0,7.66l1.61,16.18a1.53,1.53,0,0,0,.54,3,1.53,1.53,0,0,0,1.52-1.55,1.52,1.52,0,0,0-1.29-1.49l-1.6-16.18a3.82,3.82,0,0,0,1.9-6.5l7.32-10.3a4,4,0,0,0,1.75.42,3.83,3.83,0,0,0,3.79-3.87,3.76,3.76,0,0,0-.3-1.42l4.86-2.95a3.82,3.82,0,1,0,2.88-6.28Z"/><path class="cls-8" d="M113.94,509.26a3.81,3.81,0,0,0-2.45,1.83l-15.12-5.83a5.75,5.75,0,0,0,.06-2.86,5.86,5.86,0,0,0-7-4.41,5.76,5.76,0,0,0-3.1,1.85l-15-9.92a5.86,5.86,0,0,0-6.46-8.3l-7.65-21.9a5.87,5.87,0,1,0-1.47.51l7.65,21.9a5.81,5.81,0,0,0-1.29.89l-13.69-12.3a3.82,3.82,0,1,0-6.83-3.26L26.3,465a3.65,3.65,0,0,0-.09-.86,3.86,3.86,0,1,0-.1,2l15.31,2.43a3.68,3.68,0,0,0,.09.87,3.83,3.83,0,0,0,4.58,2.88,3.6,3.6,0,0,0,1.56-.78l13.7,12.31a5.86,5.86,0,0,0,9.13,7.33l15,9.92a5.82,5.82,0,0,0-.59,2.62l-37.3,5.33a5.86,5.86,0,0,0-10.26-2l-16.84-9.87a5.83,5.83,0,1,0-.78,1.34l16.84,9.87a5.77,5.77,0,0,0,.39,5.3l-12.78,9.59a3.82,3.82,0,1,0,1.06,1.88,3.68,3.68,0,0,0-.37-.94l12.79-9.6a5.86,5.86,0,0,0,5.62,1.76l.19-.06,9.9,26.4a3.8,3.8,0,1,0,1.09-.42l-9.89-26.39a5.85,5.85,0,0,0,3.26-5.31l37.31-5.33A5.86,5.86,0,0,0,96,506.35l15.11,5.83a3.92,3.92,0,0,0,0,1.67,3.83,3.83,0,1,0,2.88-4.59Z"/><path class="cls-8" d="M-32.25,230.39a5.86,5.86,0,0,0,5.81-5.92c0-.09,0-.18,0-.28l15.47-3a5.64,5.64,0,0,0,1.29,2.14l-8.2,8.81a1.54,1.54,0,0,0-.74-.19,1.55,1.55,0,0,0-1.52,1.55,1.54,1.54,0,0,0,1.55,1.52,1.53,1.53,0,0,0,1.52-1.55,1.45,1.45,0,0,0-.24-.8l8.19-8.8a5.91,5.91,0,0,0,3.76,1.32,5.87,5.87,0,0,0,5.8-5.72l9.46-.39a1.53,1.53,0,0,0,3-.46,1.53,1.53,0,0,0-3-.31l-9.46.38A5.85,5.85,0,0,0-4,213.67l3-16.4a1.52,1.52,0,0,0,1.41-1.54,1.53,1.53,0,0,0-1.55-1.51,1.52,1.52,0,0,0-1.51,1.54,1.55,1.55,0,0,0,.88,1.38l-2.95,16.39a5.63,5.63,0,0,0-.71,0,5.86,5.86,0,0,0-5.81,5.92c0,.09,0,.18,0,.28l-15.47,3a5.87,5.87,0,0,0-5.62-4,5.88,5.88,0,0,0-5.8,5.93A5.86,5.86,0,0,0-32.25,230.39Z"/><path class="cls-8" d="M-13.35,459.49a5.86,5.86,0,0,0,5.81-5.92A6.19,6.19,0,0,0-7.77,452l18.82-8.25a5.85,5.85,0,0,0,10.31-5.52L27,434.63a5.86,5.86,0,1,0-.84-1.31l-5.64,3.61a5.86,5.86,0,0,0-9,0L-13.35,419.8a3.82,3.82,0,0,0,.39-1.69,3.82,3.82,0,0,0-3.87-3.79,3.83,3.83,0,0,0-3.79,3.87A3.83,3.83,0,0,0-16.75,422,3.82,3.82,0,0,0-14,420.77L10.92,437.9a5.84,5.84,0,0,0-.73,2.88,5.77,5.77,0,0,0,.23,1.56L-8.4,450.58a5.87,5.87,0,0,0-5.07-2.82,5.81,5.81,0,0,0-2.89.81l-14.27-18.31a5.89,5.89,0,0,0,1.68-4.17,5.87,5.87,0,0,0-5.92-5.8,5.86,5.86,0,0,0-5.81,5.92A5.86,5.86,0,0,0-34.76,432a5.82,5.82,0,0,0,2.9-.81l14.27,18.31a5.87,5.87,0,0,0-1.56,2.91L-47,449.5a3.82,3.82,0,0,0-3.85-3.64,3.83,3.83,0,0,0-3.79,3.86,3.82,3.82,0,0,0,3.87,3.79,3.8,3.8,0,0,0,3.65-2.85l27.89,2.94v.09a5.85,5.85,0,0,0,3,5l-10.06,24.86a5.51,5.51,0,0,0-1.52-.19,5.86,5.86,0,0,0-5.81,5.92,5.86,5.86,0,0,0,5.93,5.8,5.85,5.85,0,0,0,5.56-4.2l11.26,2.54a1.53,1.53,0,0,0,1.55,1.48,1.55,1.55,0,0,0,1.52-1.55,1.55,1.55,0,0,0-1.55-1.52,1.54,1.54,0,0,0-1.34.83L-22,490.16a5.22,5.22,0,0,0,.07-1,5.85,5.85,0,0,0-3-5l10.07-24.86A5.39,5.39,0,0,0-13.35,459.49Z"/></g></g><g class="cls-6"><path class="cls-8" d="M254.4,396.15a1.85,1.85,0,0,0-2-1.46l-3.54-10.43a7.09,7.09,0,1,0-7.7-1.62l-22,27a7.06,7.06,0,0,0-5.28-1,6.92,6.92,0,0,0-3.08,1.48l-12.84-13.18a4.63,4.63,0,0,0-3.12-7.48L194.23,360l.27,0a4.63,4.63,0,1,0-1.87-9.06h0l-9.73-28.11A4.59,4.59,0,0,0,185,316.7l18.77-11.81a4.63,4.63,0,0,0,7,.2l4.38,3.42a1.84,1.84,0,0,0,2,2.61,1.85,1.85,0,0,0-.75-3.63,1.93,1.93,0,0,0-.81.4l-4.38-3.41a4.63,4.63,0,1,0-8.41-1.6,4.89,4.89,0,0,0,.34,1l-18.77,11.81a4.51,4.51,0,0,0-5.17-1.4l-5.72-12.23a1.83,1.83,0,1,0-.74.35l0,0,5.71,12.22a4.63,4.63,0,0,0,3.24,8.55h0l9.73,28.12a4.62,4.62,0,0,0,1.56,8.74l.53,29.44-.26,0a4.63,4.63,0,0,0,1.86,9.07,4.54,4.54,0,0,0,1.85-.84l12.84,13.19a7,7,0,0,0-1.72,4.22l-32.5,1.63c0-.1,0-.2,0-.3a7.09,7.09,0,0,0-8.37-5.51,6.74,6.74,0,0,0-2,.77l-6.07-9a4.63,4.63,0,1,0-7.62-4.27l-18.24-.9a3.72,3.72,0,0,0-.08-.57,4.63,4.63,0,1,0,0,1.74l18.25.89c0,.19,0,.38.07.58a4.64,4.64,0,0,0,5.47,3.6,5,5,0,0,0,1.16-.41l6.07,8.95a7.07,7.07,0,0,0,.47,11.38l-9.05,17.12a7.07,7.07,0,0,0-8.36,2.47L117.59,425.6a7.08,7.08,0,1,0-13.44-3.24l-22.49,2.08h0a7.09,7.09,0,0,0-12.5-3l-15-10a4.62,4.62,0,1,0-8.7-2.8l-9.86-.35-.9-9.17-1.54.15.87,9-20.54-.73a7,7,0,0,0-4.2-6.14l11-34.61a10.48,10.48,0,0,0,4.6.08,10.61,10.61,0,0,0,8.36-12L64,348.55a7.07,7.07,0,0,0,8.22,4.95,6.9,6.9,0,0,0,3.25-1.62l20.13,18.35a7.08,7.08,0,1,0,12.8,4.33l46.9-4.07a.08.08,0,0,0,0,0,7.09,7.09,0,1,0,1.76-6.26l-16.31-12.88a4.56,4.56,0,0,0,.57-3.31,4.5,4.5,0,0,0-.78-1.77l10.18-8.73a2,2,0,1,0-.5-.59l-10.18,8.72a4.71,4.71,0,0,0-1.12-.81l10.49-28.68a4.6,4.6,0,1,0-1.1-.4L137.85,344.5a4.62,4.62,0,0,0-2,0,4.68,4.68,0,0,0-2.56,1.49l-12.51-9.16a1.8,1.8,0,0,0,.13-1.13,1.89,1.89,0,1,0-.59,1.75l12.52,9.17a4.57,4.57,0,0,0-.21,4.44l-14,9.14-14-8.74a4.62,4.62,0,1,0-4.63,2.67l.46,13.25-.6.09a7.09,7.09,0,0,0-3.25,1.62L76.54,350.73A7.07,7.07,0,0,0,74,340.21l11-30.34a7.18,7.18,0,0,0,3.1.07,7.09,7.09,0,0,0,3-12.49l20.62-30.73a7,7,0,0,0,4.87.75,6.83,6.83,0,0,0,1.37-.43l8.65,16.27a4.61,4.61,0,1,0,1.74-.76,5.31,5.31,0,0,0-.71.21L119,266.49a7.08,7.08,0,0,0,2.76-3.36l33,9a6.9,6.9,0,0,0,0,2.52A7.08,7.08,0,0,0,168,276.34l13.38,5.32a4.55,4.55,0,0,0,0,2.08,4.62,4.62,0,1,0,.48-3.17l-13.37-5.32a7.11,7.11,0,0,0,0-4.28l26.41-12a7.07,7.07,0,1,0-.86-2.2,5.41,5.41,0,0,0,.21.79l-26.41,12a7.07,7.07,0,0,0-12.67,1l-32.94-9a7.2,7.2,0,0,0-.06-2.53,7,7,0,0,0-4-5L125.17,233a6.88,6.88,0,0,0,2.93,0,7.08,7.08,0,0,0,5.51-8.37A6.91,6.91,0,0,0,133,223l16.76-10.09a4.61,4.61,0,0,0,4.56,1.67,4.51,4.51,0,0,0,2.39-1.31l7.93,9.63a7.07,7.07,0,0,0-2.15,6.64A6.83,6.83,0,0,0,163,231L147,239.07a1.82,1.82,0,0,0-1.8-.65,1.85,1.85,0,1,0,2.19,1.44l0-.1,16-8.11a7.07,7.07,0,0,0,7.16,3.44L173.57,250a1.85,1.85,0,1,0,2.56,1.32,1.87,1.87,0,0,0-1.8-1.48l-3.07-14.93a7.09,7.09,0,0,0,5.26-6.4l31.5-1.47a1.92,1.92,0,0,0,0,.32,7.09,7.09,0,1,0-.13-1.88L176.44,227a1.64,1.64,0,0,0-.05-.32,7.07,7.07,0,0,0-8.36-5.52,7,7,0,0,0-2.77,1.24l-8-9.75a4.64,4.64,0,0,0,.71-3.54,4.58,4.58,0,0,0-.52-1.38l25.71-19.46A4.62,4.62,0,1,0,181.9,186a4.88,4.88,0,0,0,.53,1.38L156.72,206.8a4.62,4.62,0,0,0-7.84,4.16,4.3,4.3,0,0,0,.3.94L132.42,222a7.09,7.09,0,0,0-7.18-2.8,7.47,7.47,0,0,0-1.14.34l-12.24-23.45a7.08,7.08,0,1,0-2.52,1.06,8.38,8.38,0,0,0,1.14-.35l12.24,23.46a7.07,7.07,0,0,0,1,12.3l-7.06,21.07a6.88,6.88,0,0,0-2.93,0,7.09,7.09,0,0,0-3,12.48L90.11,296.81a7.06,7.06,0,0,0-8.4,1.12L60.3,280.42a7.08,7.08,0,0,0-5.22-10.91L54.9,247l.59-.09a7.08,7.08,0,0,0,3.29-12.22l20.31-28.5a7,7,0,0,0,4.87.76A7.12,7.12,0,0,0,87,205.45l7.55,8.24a1.81,1.81,0,0,0-.31,1.44,1.85,1.85,0,1,0,1.44-2.19,1.82,1.82,0,0,0-.56.22l-7.55-8.24a7.1,7.1,0,1,0-9.78.33l-20.31,28.5a7.05,7.05,0,0,0-8.18.91L36,222.07a4.62,4.62,0,1,0-2.8,1.81,4.53,4.53,0,0,0,2-1l13.33,12.59A7,7,0,0,0,47,240L14,243.85a7.08,7.08,0,0,0-8.32-5.35,7.21,7.21,0,0,0-2.57,1.09l-7.2-8.89a4.65,4.65,0,0,0,1.19-4.13A4.64,4.64,0,0,0-8.34,223a4.63,4.63,0,0,0-3.6,5.47A4.63,4.63,0,0,0-6.48,232a4.77,4.77,0,0,0,1.51-.6l7.21,8.89A7.05,7.05,0,0,0,.07,245l-15.16.2c0-.1,0-.2-.05-.29a4.61,4.61,0,0,0-5.46-3.6,4.62,4.62,0,0,0-3.6,5.46,4.62,4.62,0,0,0,5.46,3.6,4.63,4.63,0,0,0,3.67-4l15.15-.19a6.46,6.46,0,0,0,.11.75,7.05,7.05,0,0,0,1.37,2.94l-20.06,19.6A7.06,7.06,0,0,0-24.41,268a7.06,7.06,0,0,0-4.67,3.34l-30.46-13.73a7.12,7.12,0,0,0,.21-3.62,7.09,7.09,0,0,0-8.37-5.51,7,7,0,0,0-4.39,2.9l-24.26-13.14a7.11,7.11,0,0,0,.38-4.1,7.09,7.09,0,0,0-8.37-5.52,7.09,7.09,0,0,0-5.52,8.37,7.1,7.1,0,0,0,8.37,5.52,7.1,7.1,0,0,0,4.39-2.91l24.26,13.15a7.1,7.1,0,0,0-.38,4.1,7.09,7.09,0,0,0,8.37,5.51A7.06,7.06,0,0,0-60.18,259l30.46,13.74a7.08,7.08,0,0,0-.21,3.61A7.1,7.1,0,0,0-23.11,282l2.92,31.61h0A7.09,7.09,0,0,0-25.71,322a7.08,7.08,0,0,0,1.12,2.62l-32.77,28.6a7.11,7.11,0,0,0-6.22-1.73A7.1,7.1,0,0,0-67.73,354l-28.88-17.86a7.07,7.07,0,0,0,.55-4.47,7.1,7.1,0,0,0-6.19-5.62l.46-19.95.46-.07a4.63,4.63,0,0,0,3.65-3.9l11.88.62a.25.25,0,0,0,0,.08,1.84,1.84,0,0,0,2.18,1.44,1.86,1.86,0,0,0,1.45-2.19,1.86,1.86,0,0,0-2.19-1.44A1.84,1.84,0,0,0-85.76,302l-11.88-.62a5.18,5.18,0,0,0-.09-.78,4.62,4.62,0,0,0-5.47-3.6,3.54,3.54,0,0,0-.44.11L-113,276.64a4.63,4.63,0,0,0,2.1-4.86,4.6,4.6,0,0,0-.3-.93l10.4-5.66a1.86,1.86,0,0,0,1.78.61,1.85,1.85,0,0,0,1.44-2.19,1.86,1.86,0,0,0-2.19-1.44,1.86,1.86,0,0,0-1.44,2.19c0,.05,0,.1,0,.15l-10.4,5.66a4.6,4.6,0,0,0-4.79-2,4.63,4.63,0,0,0-3.61,5.46,4.63,4.63,0,0,0,5.47,3.6l.44-.11,9.35,20.47a4.63,4.63,0,0,0-2.1,4.86,4.63,4.63,0,0,0,1.27,2.34l-5.48,6.51a1.82,1.82,0,0,0-1.24-.19,1.86,1.86,0,0,0-1.44,2.19,1.85,1.85,0,0,0,2.19,1.44,1.86,1.86,0,0,0,1.44-2.19,1.81,1.81,0,0,0-.36-.75l5.49-6.51a4.66,4.66,0,0,0,2,.8l-.47,20a7.16,7.16,0,0,0-1,.13,7.08,7.08,0,0,0-5.51,8.37,7.08,7.08,0,0,0,8.37,5.51,7.05,7.05,0,0,0,4.15-2.58l28.88,17.87a7,7,0,0,0-.55,4.46,7,7,0,0,0,1,2.46l-12,8.87a1.84,1.84,0,0,0-1.59-.43,1.86,1.86,0,0,0-1.44,2.19,1.85,1.85,0,0,0,2.19,1.44,1.85,1.85,0,0,0,1.44-2.19,1.71,1.71,0,0,0-.13-.38l12-8.87a7.06,7.06,0,0,0,3.17,2.18l-5.86,26.17a7.18,7.18,0,0,0-2.21.11A7.09,7.09,0,0,0-78,399.73l0,.17-19.19,5.55a1.85,1.85,0,0,0-2-.94,1.86,1.86,0,0,0-1.44,2.19,1.86,1.86,0,0,0,2.19,1.44,1.85,1.85,0,0,0,1.47-1.94l19.18-5.55a7.09,7.09,0,0,0,8.11,4.6,7.09,7.09,0,0,0,5.52-8.37,7.09,7.09,0,0,0-4.65-5.27l5.86-26.17a7.18,7.18,0,0,0,2.21-.1A7.09,7.09,0,0,0-55.21,357a7.08,7.08,0,0,0-1.12-2.62l32.77-28.6a7.08,7.08,0,0,0,6.22,1.73A7.08,7.08,0,0,0-14,325.73L14.2,350.11a10.62,10.62,0,0,0,4.58,16.21l-11,34.59a7.09,7.09,0,0,0-7.1,2.76l-16.85-10.36a4.57,4.57,0,0,0,.32-2.84,4.62,4.62,0,0,0-5.46-3.6,4.61,4.61,0,0,0-3.6,5.46,4.61,4.61,0,0,0,5.46,3.6,4.61,4.61,0,0,0,2.68-1.63L.1,404.66a7.08,7.08,0,0,0,3.69,9.78l-6.15,18.24a1.88,1.88,0,0,0-.58,0,1.86,1.86,0,0,0-1.45,2.19,1.86,1.86,0,0,0,2.19,1.44,1.86,1.86,0,0,0,1.44-2.19,1.85,1.85,0,0,0-.87-1.21l6.16-18.24a7,7,0,0,0,3.32.11,7.08,7.08,0,0,0,5.6-6.1l20.7.74,3.29,33.62a7.08,7.08,0,0,0-5.62,6.9l-21,2.21a7,7,0,0,0-2-3.62,7.08,7.08,0,0,0-9.22-.46l-15.79-17.25a4.61,4.61,0,0,0-.33-6.34,4.63,4.63,0,0,0-6.54.18,4.63,4.63,0,0,0,.17,6.54,4.63,4.63,0,0,0,5.85.42l15.78,17.23a7.1,7.1,0,0,0-.1,9.52l-19.45,21.55a7.07,7.07,0,0,0-9.28.87,7.08,7.08,0,0,0,.26,10,7.09,7.09,0,0,0,10-.27,7.09,7.09,0,0,0,.15-9.58L-.22,459.43A7.08,7.08,0,0,0,11,453.72l21-2.21a7.06,7.06,0,0,0,11.76,3.64l25.93,22.13a7.08,7.08,0,0,0,1,9.12,6.51,6.51,0,0,0,1,.77l-7,12a1.83,1.83,0,0,0-1.91.48,1.85,1.85,0,1,0,2.62-.07l0,0,7-12a7.08,7.08,0,1,0-1.62-11.47L44.76,454a7.08,7.08,0,0,0-.58-8.69l12.55-13.23a4.67,4.67,0,1,0-.84-.81L43.33,444.47A7,7,0,0,0,39,442.92l-3.27-33.43,9.69.35a4.5,4.5,0,0,0,.08.51A4.62,4.62,0,0,0,51,414a4.57,4.57,0,0,0,2.56-1.5l15,10a7.06,7.06,0,0,0,5,10.4L72,454.94a6.21,6.21,0,0,0-1.12.13,7.09,7.09,0,1,0,7.54,10.51l19.88,9.53a4.61,4.61,0,0,0,.69,4.22l-10.07,8.92a1.85,1.85,0,0,0-2.9,1.86,1.85,1.85,0,1,0,3.63-.74,1.89,1.89,0,0,0-.21-.53l10.06-8.93a4.69,4.69,0,0,0,1.91,1.1L96.6,512a4.8,4.8,0,0,0-1.06.09A4.6,4.6,0,0,0,92,515.62l-25.08-2.23a4.92,4.92,0,0,0-.09-.76,4.63,4.63,0,0,0-6.21-3.38l-13.06-24a4.6,4.6,0,1,0-1,.56l13.06,24a4.64,4.64,0,0,0-1.83,4.68,4.59,4.59,0,0,0,1,2L42.93,533.34a4.63,4.63,0,1,0,1.82,2.81,4.53,4.53,0,0,0-1-2l15.77-16.82a4.63,4.63,0,0,0,7.23-2.76l25.07,2.23a5.07,5.07,0,0,0,.09.76,4.51,4.51,0,0,0,.76,1.73L76.79,532.66a1.85,1.85,0,0,0-3,1.83,1.85,1.85,0,1,0,3.63-.75,1.81,1.81,0,0,0-.18-.49L93.2,519.87a4.65,4.65,0,0,0,4.21,1.27l.13,0,3.53,10.73a1.85,1.85,0,1,0,.74-.24l-3.53-10.73a4.62,4.62,0,0,0-.52-8.7l4.82-31a5.42,5.42,0,0,0,1.06-.09,4.62,4.62,0,0,0,3-2.06l8.22,4.3a1.78,1.78,0,0,0,0,.86,1.85,1.85,0,1,0,1.44-2.19,1.88,1.88,0,0,0-1,.64l-8.21-4.3a4.56,4.56,0,0,0,.26-2.72,4.62,4.62,0,0,0-8.41-1.58L79,464.53A7.07,7.07,0,0,0,73.57,455L75,432.93a6,6,0,0,0,1.11-.13A7.09,7.09,0,0,0,81.8,426l22.49-2.08h0a7.08,7.08,0,0,0,12.7,2.7l29.71,17.75a7.08,7.08,0,0,0,4.81,10L149.73,465l-.29,0a1.85,1.85,0,1,0,2.19,1.45,1.84,1.84,0,0,0-1.13-1.35l1.78-10.64a7.18,7.18,0,0,0,2.21-.1,7.08,7.08,0,0,0,2.55-12.8l9-17.12a7.08,7.08,0,0,0,9.67-6.17l32.5-1.63c0,.1,0,.2,0,.3a7.08,7.08,0,1,0,13.88-2.85,7,7,0,0,0-1.88-3.53l22.06-27a7,7,0,0,0,5.28,1l.47-.13,3.54,10.44a1.85,1.85,0,1,0,2.76,1.21ZM118.73,361.56,133.3,352a4.62,4.62,0,0,0,4.45,1.53,4.48,4.48,0,0,0,2.31-1.23l16.3,12.87a7.13,7.13,0,0,0-1.17,3.75L108.29,373s0,0,0,0a7.08,7.08,0,0,0-6.6-5.65l-.45-13.25.19,0a4.58,4.58,0,0,0,2.65-1.61ZM72.49,339.68a7.07,7.07,0,0,0-8.7,7.73L33,353.74a10.61,10.61,0,0,0-17.77-4.81l-28.16-24.38a7,7,0,0,0,1.11-5.44,7.09,7.09,0,0,0-6.81-5.66l-2.92-31.61h0A7.07,7.07,0,0,0-16,273.47a7,7,0,0,0-1.36-2.94L2.64,250.92a7.08,7.08,0,0,0,11.58-5.52l32.94-3.88A7.1,7.1,0,0,0,53.34,247l.18,22.55c-.2,0-.39.05-.59.09a7.09,7.09,0,0,0-3.21,12.3L37.94,298.05a4.62,4.62,0,1,0,2.3,3.12,4.59,4.59,0,0,0-1.36-2.43L50.67,282.6a7.06,7.06,0,0,0,8.64-1l21.41,17.52a7.07,7.07,0,0,0,2.81,10.2Z"/></g><g class="cls-9"><g class="cls-7"><path class="cls-8" d="M-32.48,371.41a5.82,5.82,0,0,0-1.69,4.18,5.85,5.85,0,0,0,5.92,5.8,5.86,5.86,0,0,0,5.81-5.92c0-.06,0-.12,0-.18l40.58-7.11a5.85,5.85,0,0,0,8.73,3.18l10.33,12.29A5.86,5.86,0,1,0,46.88,390l15.44,5.67c0,.06,0,.11,0,.16a1.55,1.55,0,1,0,.28-.89l-15.44-5.67a6,6,0,0,0,.24-1.71,5.86,5.86,0,0,0-9-4.89L28.05,370.36a5.85,5.85,0,0,0-1-8.74L35.85,346a3.72,3.72,0,0,0,1.38.25A3.8,3.8,0,0,0,40.07,345l8.69,5.48a3.69,3.69,0,0,0-.32,1.56,3.83,3.83,0,1,0,3.79-3.87,3.79,3.79,0,0,0-2.84,1.33L40.7,344a4,4,0,0,0,.32-1.56,3.83,3.83,0,0,0-7.66.08,3.79,3.79,0,0,0,1.47,3L26.07,361a5.87,5.87,0,0,0-8.22,5.43c0,.06,0,.12,0,.18l-40.58,7.11a5.89,5.89,0,0,0-1.4-2.33l15.54-18.64a3.91,3.91,0,0,0,2,.56,3.83,3.83,0,0,0,3.79-3.87A3.83,3.83,0,0,0-5,346.05l7.09-24.67a4.8,4.8,0,0,0,.52.05,3.83,3.83,0,0,0-.07-7.66l-.21,0L-.8,299.74a3.8,3.8,0,0,0,2.44-3.59,3.83,3.83,0,0,0-3.06-3.71L.45,273.69a1.51,1.51,0,0,0,1.29-1.52,1.53,1.53,0,0,0-1.55-1.52,1.53,1.53,0,0,0-1.51,1.55,1.53,1.53,0,0,0,1,1.42L-2.2,292.36h0A3.81,3.81,0,0,0-6,295.85l-22.27,1.47a3.81,3.81,0,0,0-3.77-3,3.82,3.82,0,0,0-3.79,3.86,3.81,3.81,0,0,0,1.09,2.63l-3,3.56a1.38,1.38,0,0,0-.67-.15,1.52,1.52,0,0,0-1.51,1.54,1.52,1.52,0,0,0,1.54,1.52,1.53,1.53,0,0,0,1.52-1.55,1.55,1.55,0,0,0-.28-.87l3-3.54a3.78,3.78,0,0,0,2.18.65,3.81,3.81,0,0,0,3.75-3.49L-5.92,297a3.82,3.82,0,0,0,3.77,3l.21,0L1.19,314a3.81,3.81,0,0,0-.22,7l-7.1,24.68a3,3,0,0,0-.52-.05,3.83,3.83,0,0,0-3.79,3.87,3.8,3.8,0,0,0,1,2.48L-25,370.68a5.76,5.76,0,0,0-3.35-1,5.86,5.86,0,0,0-2.88.79L-52,343.64a5.85,5.85,0,0,0,1.69-4.18,5.86,5.86,0,0,0-4.2-5.57l3.92-17.5a1.53,1.53,0,0,0,1.48-1.54,1.53,1.53,0,0,0-1.55-1.52,1.53,1.53,0,0,0-1.52,1.55,1.56,1.56,0,0,0,.83,1.34l-3.92,17.51a6,6,0,0,0-1-.08,5.86,5.86,0,0,0-5.8,5.93,5.86,5.86,0,0,0,5.92,5.8,5.86,5.86,0,0,0,2.88-.79Z"/><path class="cls-8" d="M228.59,244.49a5.41,5.41,0,0,0-1.21.14l-8.15-24.74a3.8,3.8,0,0,0-.1-6.84l2.32-7.82a4.89,4.89,0,0,0,.55.05,3.83,3.83,0,1,0-2.82-6.46l-4.12-3.17a1.55,1.55,0,1,0-.48.62l4.13,3.17a3.79,3.79,0,0,0,1.62,5.46L218,212.72a2.56,2.56,0,0,0-.55-.05,3.83,3.83,0,1,0,.66,7.59L226.27,245a5.86,5.86,0,0,0-2.34,8.83l-20.26,19.52a5.85,5.85,0,0,0-8.69,1.6l-55.14-23.4a6.21,6.21,0,0,0,.22-1.62,5.85,5.85,0,0,0-1.14-3.39l29.18-27.94a5.85,5.85,0,0,0,9.52-4.64c0-.11,0-.23,0-.34l11.79-2.43a5.86,5.86,0,1,0,8.58-6.94L209.9,177a5.5,5.5,0,0,0,1.68.23,5.86,5.86,0,1,0-3.1-.85l-11.93,27.19a6.25,6.25,0,0,0-1.68-.23,5.88,5.88,0,0,0-5.81,5.93c0,.12,0,.23,0,.35l-11.79,2.42a5.86,5.86,0,0,0-5.31-3.92l-2.15-22.71a5.86,5.86,0,1,0-7.18-6l-26,1.37a3.91,3.91,0,1,0,0,1.17l25.2-1.33L67.18,205.45c-.09-.2-.18-.39-.28-.58l29.68-20.3a3.77,3.77,0,0,0,2.82,1.22A3.83,3.83,0,1,0,95.53,182a3.78,3.78,0,0,0,.39,1.61L66.24,203.9a5.88,5.88,0,0,0-4.54-2.09l-.31,0-5.32-26.91-1.53.31,5.32,26.9a5.86,5.86,0,0,0,2,11.41A5.8,5.8,0,0,0,65.75,212L86.51,229a5.82,5.82,0,0,0,.75,7.14L73,254.1a5.79,5.79,0,0,0-3.06-.84A5.87,5.87,0,1,0,70,265a5.8,5.8,0,0,0,4-1.64L93.42,278.8a5.83,5.83,0,0,0,.65,6.91L70.18,313.58a5.84,5.84,0,0,0-2.63-.92l0-9.73A3.85,3.85,0,1,0,63.6,301l-5.69,4.48a3.79,3.79,0,0,0-2.64-1,3.85,3.85,0,0,0-1.93.56L41.57,290.88a3.82,3.82,0,0,0-2.9-6.36h0l-1.38-12a1.51,1.51,0,0,0,1-1.44,1.53,1.53,0,1,0-1.75,1.53l1.38,12A3.85,3.85,0,0,0,35.75,286l-12.3-7.21a4.1,4.1,0,0,0,.27-1.45,3.83,3.83,0,1,0-3.79,3.87,3.78,3.78,0,0,0,2.91-1.42L35.15,287a3.62,3.62,0,0,0-.27,1.44,3.54,3.54,0,0,0,.16,1l-17.19,6.79a1.52,1.52,0,1,0,.3.89c0-.06,0-.11,0-.17l17.19-6.78a3.9,3.9,0,0,0,1.2,1.38l-14.1,28.83a5.86,5.86,0,1,0,3.82,5.43v-.07l35.13-5.51a5.86,5.86,0,1,0,10-5.58l23.89-27.86a5.87,5.87,0,1,0-.86-9.14L75,262.14a5.83,5.83,0,0,0-.8-7.07l14.28-17.94a5.72,5.72,0,0,0,3.07.83,5.78,5.78,0,0,0,3.9-1.55l12.37,11a3.83,3.83,0,1,0,3.18-1.75,3.78,3.78,0,0,0-2.39.89l-12.38-11a5.86,5.86,0,0,0-8.74-7.73L66.74,210.76a5.89,5.89,0,0,0,.88-3.14,4.89,4.89,0,0,0-.05-.66l95.51-25a3.1,3.1,0,0,0,.21.45l-14.46,9.33a3.81,3.81,0,0,0-6.68,2.57,3.83,3.83,0,1,0,7.66-.08,3.71,3.71,0,0,0-.33-1.52l14.44-9.32a5.8,5.8,0,0,0,4.36,2.2l2.15,22.71a5.87,5.87,0,0,0-4.54,5.77,6,6,0,0,0,1.13,3.4L137.85,245.4A5.86,5.86,0,1,0,133,255.72l-2,26.67a8.79,8.79,0,0,0-2.56,17.17L125.59,312a5.44,5.44,0,0,0-.57,0,5.87,5.87,0,1,0,5.35,8.38L160,332c0,.07,0,.13,0,.2a1.53,1.53,0,1,0,1.51-1.55,1.48,1.48,0,0,0-1.21.63l-29.61-11.7a5.72,5.72,0,0,0,.28-1.85,4.75,4.75,0,0,0,0-.54l51.63-10.62a3.8,3.8,0,1,0-.25-1.29c0,.05,0,.1,0,.15l-51.62,10.61a5.91,5.91,0,0,0-3.57-3.75l2.78-12.41a8.34,8.34,0,0,0,1.24.08,8.79,8.79,0,0,0,1.35-17.46l2-26.69a5.83,5.83,0,0,0,4.71-2.86l55.14,23.4a5.81,5.81,0,0,0-.21,1.62,5.87,5.87,0,0,0,4.7,5.69l-2.79,42.08a5.86,5.86,0,1,0,6,7.53l11.35,2.6a1.53,1.53,0,1,0,.17-.75l-11.36-2.61a6.4,6.4,0,0,0,.08-1,5.87,5.87,0,0,0-4.7-5.69l2.79-42.08a5.86,5.86,0,0,0,5-3.62l15.67,5.24s0,.07,0,.11a1.53,1.53,0,1,0,1.52-1.55,1.55,1.55,0,0,0-1.27.7l-15.67-5.24a6,6,0,0,0,.2-1.54,5.84,5.84,0,0,0-1.14-3.41L225,254.94a5.86,5.86,0,1,0,3.58-10.45ZM26,324.14a5.84,5.84,0,0,0-2.53-3.31L37.58,292a3.5,3.5,0,0,0,1.17.19,3.71,3.71,0,0,0,1.92-.56l11.77,14.16a3.83,3.83,0,1,0,6.69,2.49,3.67,3.67,0,0,0-.51-1.83L64.31,302a3.9,3.9,0,0,0,2,1l0,9.73a5.86,5.86,0,0,0-5.26,5.89s0,0,0,.07Z"/><path class="cls-8" d="M144.7,425.55a3.83,3.83,0,0,0-3.79,3.87,4,4,0,0,0,.3,1.42l-4.86,3a3.81,3.81,0,0,0-6.75,2.49.77.77,0,0,0,0,.15l-29.57,6.08a3.81,3.81,0,0,0-3.61-2.5l-.21,0-7.52-34.15a3.81,3.81,0,0,0,2.39-3l13,.66a1.53,1.53,0,1,0,0-.78l-13-.66a3.8,3.8,0,0,0-3.25-3.58l0-9.95A5.86,5.86,0,0,0,88.3,377l1.59-30.17a5.87,5.87,0,0,0,4.38-9.14L105.79,328a3.82,3.82,0,1,0-1.31-2.83,3.85,3.85,0,0,0,.56,1.93L93.52,336.8a5.87,5.87,0,0,0-8.91,7.56L60.54,366.48a5.85,5.85,0,1,0,1.05,1.14L85.67,345.5a5.8,5.8,0,0,0,2.67,1.26l-1.59,30.17a5.86,5.86,0,0,0-.08,11.68l.06,9.95a3.8,3.8,0,0,0-2.57,5.9l-5.91,4.92a1.5,1.5,0,0,0-.9-.28,1.53,1.53,0,1,0,1.54,1.51,1.49,1.49,0,0,0-.14-.63l5.9-4.92a3.84,3.84,0,0,0,2.72,1.09l.21,0,7.52,34.15a3.81,3.81,0,0,0-.87,6.65L88,457.75a1.42,1.42,0,0,0-.42-.06,1.54,1.54,0,1,0,1.55,1.52,1.52,1.52,0,0,0-.45-1.07l6.27-10.82a3.9,3.9,0,0,0,1.6.35,3.71,3.71,0,0,0,1.79-.49l8.58,12.51a1.51,1.51,0,0,0-.37,1,1.53,1.53,0,1,0,1.51-1.55,1.58,1.58,0,0,0-.49.1l-8.59-12.51a3.76,3.76,0,0,0,1.36-2.94c0-.05,0-.1,0-.15l29.56-6.08a3.93,3.93,0,0,0,.91,1.42l-7.32,10.3a3.88,3.88,0,0,0-1.74-.42,3.83,3.83,0,0,0,0,7.66l1.61,16.18a1.53,1.53,0,0,0,.54,3,1.53,1.53,0,0,0,1.52-1.55,1.52,1.52,0,0,0-1.29-1.49l-1.6-16.18a3.82,3.82,0,0,0,1.9-6.5l7.32-10.3a4,4,0,0,0,1.75.42,3.83,3.83,0,0,0,3.79-3.87,3.76,3.76,0,0,0-.3-1.42l4.86-2.95a3.82,3.82,0,1,0,2.88-6.28Z"/><path class="cls-8" d="M113.94,509.26a3.81,3.81,0,0,0-2.45,1.83l-15.12-5.83a5.75,5.75,0,0,0,.06-2.86,5.86,5.86,0,0,0-7-4.41,5.76,5.76,0,0,0-3.1,1.85l-15-9.92a5.86,5.86,0,0,0-6.46-8.3l-7.65-21.9a5.87,5.87,0,1,0-1.47.51l7.65,21.9a5.81,5.81,0,0,0-1.29.89l-13.69-12.3a3.82,3.82,0,1,0-6.83-3.26L26.3,465a3.65,3.65,0,0,0-.09-.86,3.86,3.86,0,1,0-.1,2l15.31,2.43a3.68,3.68,0,0,0,.09.87,3.83,3.83,0,0,0,4.58,2.88,3.6,3.6,0,0,0,1.56-.78l13.7,12.31a5.86,5.86,0,0,0,9.13,7.33l15,9.92a5.82,5.82,0,0,0-.59,2.62l-37.3,5.33a5.86,5.86,0,0,0-10.26-2l-16.84-9.87a5.83,5.83,0,1,0-.78,1.34l16.84,9.87a5.77,5.77,0,0,0,.39,5.3l-12.78,9.59a3.82,3.82,0,1,0,1.06,1.88,3.68,3.68,0,0,0-.37-.94l12.79-9.6a5.86,5.86,0,0,0,5.62,1.76l.19-.06,9.9,26.4a3.8,3.8,0,1,0,1.09-.42l-9.89-26.39a5.85,5.85,0,0,0,3.26-5.31l37.31-5.33A5.86,5.86,0,0,0,96,506.35l15.11,5.83a3.92,3.92,0,0,0,0,1.67,3.83,3.83,0,1,0,2.88-4.59Z"/><path class="cls-8" d="M-32.25,230.39a5.86,5.86,0,0,0,5.81-5.92c0-.09,0-.18,0-.28l15.47-3a5.64,5.64,0,0,0,1.29,2.14l-8.2,8.81a1.54,1.54,0,0,0-.74-.19,1.55,1.55,0,0,0-1.52,1.55,1.54,1.54,0,0,0,1.55,1.52,1.53,1.53,0,0,0,1.52-1.55,1.45,1.45,0,0,0-.24-.8l8.19-8.8a5.91,5.91,0,0,0,3.76,1.32,5.87,5.87,0,0,0,5.8-5.72l9.46-.39a1.53,1.53,0,0,0,3-.46,1.53,1.53,0,0,0-3-.31l-9.46.38A5.85,5.85,0,0,0-4,213.67l3-16.4a1.52,1.52,0,0,0,1.41-1.54,1.53,1.53,0,0,0-1.55-1.51,1.52,1.52,0,0,0-1.51,1.54,1.55,1.55,0,0,0,.88,1.38l-2.95,16.39a5.63,5.63,0,0,0-.71,0,5.86,5.86,0,0,0-5.81,5.92c0,.09,0,.18,0,.28l-15.47,3a5.87,5.87,0,0,0-5.62-4,5.88,5.88,0,0,0-5.8,5.93A5.86,5.86,0,0,0-32.25,230.39Z"/><path class="cls-8" d="M-13.35,459.49a5.86,5.86,0,0,0,5.81-5.92A6.19,6.19,0,0,0-7.77,452l18.82-8.25a5.85,5.85,0,0,0,10.31-5.52L27,434.63a5.86,5.86,0,1,0-.84-1.31l-5.64,3.61a5.86,5.86,0,0,0-9,0L-13.35,419.8a3.82,3.82,0,0,0,.39-1.69,3.82,3.82,0,0,0-3.87-3.79,3.83,3.83,0,0,0-3.79,3.87A3.83,3.83,0,0,0-16.75,422,3.82,3.82,0,0,0-14,420.77L10.92,437.9a5.84,5.84,0,0,0-.73,2.88,5.77,5.77,0,0,0,.23,1.56L-8.4,450.58a5.87,5.87,0,0,0-5.07-2.82,5.81,5.81,0,0,0-2.89.81l-14.27-18.31a5.89,5.89,0,0,0,1.68-4.17,5.87,5.87,0,0,0-5.92-5.8,5.86,5.86,0,0,0-5.81,5.92A5.86,5.86,0,0,0-34.76,432a5.82,5.82,0,0,0,2.9-.81l14.27,18.31a5.87,5.87,0,0,0-1.56,2.91L-47,449.5a3.82,3.82,0,0,0-3.85-3.64,3.83,3.83,0,0,0-3.79,3.86,3.82,3.82,0,0,0,3.87,3.79,3.8,3.8,0,0,0,3.65-2.85l27.89,2.94v.09a5.85,5.85,0,0,0,3,5l-10.06,24.86a5.51,5.51,0,0,0-1.52-.19,5.86,5.86,0,0,0-5.81,5.92,5.86,5.86,0,0,0,5.93,5.8,5.85,5.85,0,0,0,5.56-4.2l11.26,2.54a1.53,1.53,0,0,0,1.55,1.48,1.55,1.55,0,0,0,1.52-1.55,1.55,1.55,0,0,0-1.55-1.52,1.54,1.54,0,0,0-1.34.83L-22,490.16a5.22,5.22,0,0,0,.07-1,5.85,5.85,0,0,0-3-5l10.07-24.86A5.39,5.39,0,0,0-13.35,459.49Z"/></g></g><g class="cls-9"><path class="cls-8" d="M254.4,396.15a1.85,1.85,0,0,0-2-1.46l-3.54-10.43a7.09,7.09,0,1,0-7.7-1.62l-22,27a7.06,7.06,0,0,0-5.28-1,6.92,6.92,0,0,0-3.08,1.48l-12.84-13.18a4.63,4.63,0,0,0-3.12-7.48L194.23,360l.27,0a4.63,4.63,0,1,0-1.87-9.06h0l-9.73-28.11A4.59,4.59,0,0,0,185,316.7l18.77-11.81a4.63,4.63,0,0,0,7,.2l4.38,3.42a1.84,1.84,0,0,0,2,2.61,1.85,1.85,0,0,0-.75-3.63,1.93,1.93,0,0,0-.81.4l-4.38-3.41a4.63,4.63,0,1,0-8.41-1.6,4.89,4.89,0,0,0,.34,1l-18.77,11.81a4.51,4.51,0,0,0-5.17-1.4l-5.72-12.23a1.83,1.83,0,1,0-.74.35l0,0,5.71,12.22a4.63,4.63,0,0,0,3.24,8.55h0l9.73,28.12a4.62,4.62,0,0,0,1.56,8.74l.53,29.44-.26,0a4.63,4.63,0,0,0,1.86,9.07,4.54,4.54,0,0,0,1.85-.84l12.84,13.19a7,7,0,0,0-1.72,4.22l-32.5,1.63c0-.1,0-.2,0-.3a7.09,7.09,0,0,0-8.37-5.51,6.74,6.74,0,0,0-2,.77l-6.07-9a4.63,4.63,0,1,0-7.62-4.27l-18.24-.9a3.72,3.72,0,0,0-.08-.57,4.63,4.63,0,1,0,0,1.74l18.25.89c0,.19,0,.38.07.58a4.64,4.64,0,0,0,5.47,3.6,5,5,0,0,0,1.16-.41l6.07,8.95a7.07,7.07,0,0,0,.47,11.38l-9.05,17.12a7.07,7.07,0,0,0-8.36,2.47L117.59,425.6a7.08,7.08,0,1,0-13.44-3.24l-22.49,2.08h0a7.09,7.09,0,0,0-12.5-3l-15-10a4.62,4.62,0,1,0-8.7-2.8l-9.86-.35-.9-9.17-1.54.15.87,9-20.54-.73a7,7,0,0,0-4.2-6.14l11-34.61a10.48,10.48,0,0,0,4.6.08,10.61,10.61,0,0,0,8.36-12L64,348.55a7.07,7.07,0,0,0,8.22,4.95,6.9,6.9,0,0,0,3.25-1.62l20.13,18.35a7.08,7.08,0,1,0,12.8,4.33l46.9-4.07a.08.08,0,0,0,0,0,7.09,7.09,0,1,0,1.76-6.26l-16.31-12.88a4.56,4.56,0,0,0,.57-3.31,4.5,4.5,0,0,0-.78-1.77l10.18-8.73a2,2,0,1,0-.5-.59l-10.18,8.72a4.71,4.71,0,0,0-1.12-.81l10.49-28.68a4.6,4.6,0,1,0-1.1-.4L137.85,344.5a4.62,4.62,0,0,0-2,0,4.68,4.68,0,0,0-2.56,1.49l-12.51-9.16a1.8,1.8,0,0,0,.13-1.13,1.89,1.89,0,1,0-.59,1.75l12.52,9.17a4.57,4.57,0,0,0-.21,4.44l-14,9.14-14-8.74a4.62,4.62,0,1,0-4.63,2.67l.46,13.25-.6.09a7.09,7.09,0,0,0-3.25,1.62L76.54,350.73A7.07,7.07,0,0,0,74,340.21l11-30.34a7.18,7.18,0,0,0,3.1.07,7.09,7.09,0,0,0,3-12.49l20.62-30.73a7,7,0,0,0,4.87.75,6.83,6.83,0,0,0,1.37-.43l8.65,16.27a4.61,4.61,0,1,0,1.74-.76,5.31,5.31,0,0,0-.71.21L119,266.49a7.08,7.08,0,0,0,2.76-3.36l33,9a6.9,6.9,0,0,0,0,2.52A7.08,7.08,0,0,0,168,276.34l13.38,5.32a4.55,4.55,0,0,0,0,2.08,4.62,4.62,0,1,0,.48-3.17l-13.37-5.32a7.11,7.11,0,0,0,0-4.28l26.41-12a7.07,7.07,0,1,0-.86-2.2,5.41,5.41,0,0,0,.21.79l-26.41,12a7.07,7.07,0,0,0-12.67,1l-32.94-9a7.2,7.2,0,0,0-.06-2.53,7,7,0,0,0-4-5L125.17,233a6.88,6.88,0,0,0,2.93,0,7.08,7.08,0,0,0,5.51-8.37A6.91,6.91,0,0,0,133,223l16.76-10.09a4.61,4.61,0,0,0,4.56,1.67,4.51,4.51,0,0,0,2.39-1.31l7.93,9.63a7.07,7.07,0,0,0-2.15,6.64A6.83,6.83,0,0,0,163,231L147,239.07a1.82,1.82,0,0,0-1.8-.65,1.85,1.85,0,1,0,2.19,1.44l0-.1,16-8.11a7.07,7.07,0,0,0,7.16,3.44L173.57,250a1.85,1.85,0,1,0,2.56,1.32,1.87,1.87,0,0,0-1.8-1.48l-3.07-14.93a7.09,7.09,0,0,0,5.26-6.4l31.5-1.47a1.92,1.92,0,0,0,0,.32,7.09,7.09,0,1,0-.13-1.88L176.44,227a1.64,1.64,0,0,0-.05-.32,7.07,7.07,0,0,0-8.36-5.52,7,7,0,0,0-2.77,1.24l-8-9.75a4.64,4.64,0,0,0,.71-3.54,4.58,4.58,0,0,0-.52-1.38l25.71-19.46A4.62,4.62,0,1,0,181.9,186a4.88,4.88,0,0,0,.53,1.38L156.72,206.8a4.62,4.62,0,0,0-7.84,4.16,4.3,4.3,0,0,0,.3.94L132.42,222a7.09,7.09,0,0,0-7.18-2.8,7.47,7.47,0,0,0-1.14.34l-12.24-23.45a7.08,7.08,0,1,0-2.52,1.06,8.38,8.38,0,0,0,1.14-.35l12.24,23.46a7.07,7.07,0,0,0,1,12.3l-7.06,21.07a6.88,6.88,0,0,0-2.93,0,7.09,7.09,0,0,0-3,12.48L90.11,296.81a7.06,7.06,0,0,0-8.4,1.12L60.3,280.42a7.08,7.08,0,0,0-5.22-10.91L54.9,247l.59-.09a7.08,7.08,0,0,0,3.29-12.22l20.31-28.5a7,7,0,0,0,4.87.76A7.12,7.12,0,0,0,87,205.45l7.55,8.24a1.81,1.81,0,0,0-.31,1.44,1.85,1.85,0,1,0,1.44-2.19,1.82,1.82,0,0,0-.56.22l-7.55-8.24a7.1,7.1,0,1,0-9.78.33l-20.31,28.5a7.05,7.05,0,0,0-8.18.91L36,222.07a4.62,4.62,0,1,0-2.8,1.81,4.53,4.53,0,0,0,2-1l13.33,12.59A7,7,0,0,0,47,240L14,243.85a7.08,7.08,0,0,0-8.32-5.35,7.21,7.21,0,0,0-2.57,1.09l-7.2-8.89a4.65,4.65,0,0,0,1.19-4.13A4.64,4.64,0,0,0-8.34,223a4.63,4.63,0,0,0-3.6,5.47A4.63,4.63,0,0,0-6.48,232a4.77,4.77,0,0,0,1.51-.6l7.21,8.89A7.05,7.05,0,0,0,.07,245l-15.16.2c0-.1,0-.2-.05-.29a4.61,4.61,0,0,0-5.46-3.6,4.62,4.62,0,0,0-3.6,5.46,4.62,4.62,0,0,0,5.46,3.6,4.63,4.63,0,0,0,3.67-4l15.15-.19a6.46,6.46,0,0,0,.11.75,7.05,7.05,0,0,0,1.37,2.94l-20.06,19.6A7.06,7.06,0,0,0-24.41,268a7.06,7.06,0,0,0-4.67,3.34l-30.46-13.73a7.12,7.12,0,0,0,.21-3.62,7.09,7.09,0,0,0-8.37-5.51,7,7,0,0,0-4.39,2.9l-24.26-13.14a7.11,7.11,0,0,0,.38-4.1,7.09,7.09,0,0,0-8.37-5.52,7.09,7.09,0,0,0-5.52,8.37,7.1,7.1,0,0,0,8.37,5.52,7.1,7.1,0,0,0,4.39-2.91l24.26,13.15a7.1,7.1,0,0,0-.38,4.1,7.09,7.09,0,0,0,8.37,5.51A7.06,7.06,0,0,0-60.18,259l30.46,13.74a7.08,7.08,0,0,0-.21,3.61A7.1,7.1,0,0,0-23.11,282l2.92,31.61h0A7.09,7.09,0,0,0-25.71,322a7.08,7.08,0,0,0,1.12,2.62l-32.77,28.6a7.11,7.11,0,0,0-6.22-1.73A7.1,7.1,0,0,0-67.73,354l-28.88-17.86a7.07,7.07,0,0,0,.55-4.47,7.1,7.1,0,0,0-6.19-5.62l.46-19.95.46-.07a4.63,4.63,0,0,0,3.65-3.9l11.88.62a.25.25,0,0,0,0,.08,1.84,1.84,0,0,0,2.18,1.44,1.86,1.86,0,0,0,1.45-2.19,1.86,1.86,0,0,0-2.19-1.44A1.84,1.84,0,0,0-85.76,302l-11.88-.62a5.18,5.18,0,0,0-.09-.78,4.62,4.62,0,0,0-5.47-3.6,3.54,3.54,0,0,0-.44.11L-113,276.64a4.63,4.63,0,0,0,2.1-4.86,4.6,4.6,0,0,0-.3-.93l10.4-5.66a1.86,1.86,0,0,0,1.78.61,1.85,1.85,0,0,0,1.44-2.19,1.86,1.86,0,0,0-2.19-1.44,1.86,1.86,0,0,0-1.44,2.19c0,.05,0,.1,0,.15l-10.4,5.66a4.6,4.6,0,0,0-4.79-2,4.63,4.63,0,0,0-3.61,5.46,4.63,4.63,0,0,0,5.47,3.6l.44-.11,9.35,20.47a4.63,4.63,0,0,0-2.1,4.86,4.63,4.63,0,0,0,1.27,2.34l-5.48,6.51a1.82,1.82,0,0,0-1.24-.19,1.86,1.86,0,0,0-1.44,2.19,1.85,1.85,0,0,0,2.19,1.44,1.86,1.86,0,0,0,1.44-2.19,1.81,1.81,0,0,0-.36-.75l5.49-6.51a4.66,4.66,0,0,0,2,.8l-.47,20a7.16,7.16,0,0,0-1,.13,7.08,7.08,0,0,0-5.51,8.37,7.08,7.08,0,0,0,8.37,5.51,7.05,7.05,0,0,0,4.15-2.58l28.88,17.87a7,7,0,0,0-.55,4.46,7,7,0,0,0,1,2.46l-12,8.87a1.84,1.84,0,0,0-1.59-.43,1.86,1.86,0,0,0-1.44,2.19,1.85,1.85,0,0,0,2.19,1.44,1.85,1.85,0,0,0,1.44-2.19,1.71,1.71,0,0,0-.13-.38l12-8.87a7.06,7.06,0,0,0,3.17,2.18l-5.86,26.17a7.18,7.18,0,0,0-2.21.11A7.09,7.09,0,0,0-78,399.73l0,.17-19.19,5.55a1.85,1.85,0,0,0-2-.94,1.86,1.86,0,0,0-1.44,2.19,1.86,1.86,0,0,0,2.19,1.44,1.85,1.85,0,0,0,1.47-1.94l19.18-5.55a7.09,7.09,0,0,0,8.11,4.6,7.09,7.09,0,0,0,5.52-8.37,7.09,7.09,0,0,0-4.65-5.27l5.86-26.17a7.18,7.18,0,0,0,2.21-.1A7.09,7.09,0,0,0-55.21,357a7.08,7.08,0,0,0-1.12-2.62l32.77-28.6a7.08,7.08,0,0,0,6.22,1.73A7.08,7.08,0,0,0-14,325.73L14.2,350.11a10.62,10.62,0,0,0,4.58,16.21l-11,34.59a7.09,7.09,0,0,0-7.1,2.76l-16.85-10.36a4.57,4.57,0,0,0,.32-2.84,4.62,4.62,0,0,0-5.46-3.6,4.61,4.61,0,0,0-3.6,5.46,4.61,4.61,0,0,0,5.46,3.6,4.61,4.61,0,0,0,2.68-1.63L.1,404.66a7.08,7.08,0,0,0,3.69,9.78l-6.15,18.24a1.88,1.88,0,0,0-.58,0,1.86,1.86,0,0,0-1.45,2.19,1.86,1.86,0,0,0,2.19,1.44,1.86,1.86,0,0,0,1.44-2.19,1.85,1.85,0,0,0-.87-1.21l6.16-18.24a7,7,0,0,0,3.32.11,7.08,7.08,0,0,0,5.6-6.1l20.7.74,3.29,33.62a7.08,7.08,0,0,0-5.62,6.9l-21,2.21a7,7,0,0,0-2-3.62,7.08,7.08,0,0,0-9.22-.46l-15.79-17.25a4.61,4.61,0,0,0-.33-6.34,4.63,4.63,0,0,0-6.54.18,4.63,4.63,0,0,0,.17,6.54,4.63,4.63,0,0,0,5.85.42l15.78,17.23a7.1,7.1,0,0,0-.1,9.52l-19.45,21.55a7.07,7.07,0,0,0-9.28.87,7.08,7.08,0,0,0,.26,10,7.09,7.09,0,0,0,10-.27,7.09,7.09,0,0,0,.15-9.58L-.22,459.43A7.08,7.08,0,0,0,11,453.72l21-2.21a7.06,7.06,0,0,0,11.76,3.64l25.93,22.13a7.08,7.08,0,0,0,1,9.12,6.51,6.51,0,0,0,1,.77l-7,12a1.83,1.83,0,0,0-1.91.48,1.85,1.85,0,1,0,2.62-.07l0,0,7-12a7.08,7.08,0,1,0-1.62-11.47L44.76,454a7.08,7.08,0,0,0-.58-8.69l12.55-13.23a4.67,4.67,0,1,0-.84-.81L43.33,444.47A7,7,0,0,0,39,442.92l-3.27-33.43,9.69.35a4.5,4.5,0,0,0,.08.51A4.62,4.62,0,0,0,51,414a4.57,4.57,0,0,0,2.56-1.5l15,10a7.06,7.06,0,0,0,5,10.4L72,454.94a6.21,6.21,0,0,0-1.12.13,7.09,7.09,0,1,0,7.54,10.51l19.88,9.53a4.61,4.61,0,0,0,.69,4.22l-10.07,8.92a1.85,1.85,0,0,0-2.9,1.86,1.85,1.85,0,1,0,3.63-.74,1.89,1.89,0,0,0-.21-.53l10.06-8.93a4.69,4.69,0,0,0,1.91,1.1L96.6,512a4.8,4.8,0,0,0-1.06.09A4.6,4.6,0,0,0,92,515.62l-25.08-2.23a4.92,4.92,0,0,0-.09-.76,4.63,4.63,0,0,0-6.21-3.38l-13.06-24a4.6,4.6,0,1,0-1,.56l13.06,24a4.64,4.64,0,0,0-1.83,4.68,4.59,4.59,0,0,0,1,2L42.93,533.34a4.63,4.63,0,1,0,1.82,2.81,4.53,4.53,0,0,0-1-2l15.77-16.82a4.63,4.63,0,0,0,7.23-2.76l25.07,2.23a5.07,5.07,0,0,0,.09.76,4.51,4.51,0,0,0,.76,1.73L76.79,532.66a1.85,1.85,0,0,0-3,1.83,1.85,1.85,0,1,0,3.63-.75,1.81,1.81,0,0,0-.18-.49L93.2,519.87a4.65,4.65,0,0,0,4.21,1.27l.13,0,3.53,10.73a1.85,1.85,0,1,0,.74-.24l-3.53-10.73a4.62,4.62,0,0,0-.52-8.7l4.82-31a5.42,5.42,0,0,0,1.06-.09,4.62,4.62,0,0,0,3-2.06l8.22,4.3a1.78,1.78,0,0,0,0,.86,1.85,1.85,0,1,0,1.44-2.19,1.88,1.88,0,0,0-1,.64l-8.21-4.3a4.56,4.56,0,0,0,.26-2.72,4.62,4.62,0,0,0-8.41-1.58L79,464.53A7.07,7.07,0,0,0,73.57,455L75,432.93a6,6,0,0,0,1.11-.13A7.09,7.09,0,0,0,81.8,426l22.49-2.08h0a7.08,7.08,0,0,0,12.7,2.7l29.71,17.75a7.08,7.08,0,0,0,4.81,10L149.73,465l-.29,0a1.85,1.85,0,1,0,2.19,1.45,1.84,1.84,0,0,0-1.13-1.35l1.78-10.64a7.18,7.18,0,0,0,2.21-.1,7.08,7.08,0,0,0,2.55-12.8l9-17.12a7.08,7.08,0,0,0,9.67-6.17l32.5-1.63c0,.1,0,.2,0,.3a7.08,7.08,0,1,0,13.88-2.85,7,7,0,0,0-1.88-3.53l22.06-27a7,7,0,0,0,5.28,1l.47-.13,3.54,10.44a1.85,1.85,0,1,0,2.76,1.21ZM118.73,361.56,133.3,352a4.62,4.62,0,0,0,4.45,1.53,4.48,4.48,0,0,0,2.31-1.23l16.3,12.87a7.13,7.13,0,0,0-1.17,3.75L108.29,373s0,0,0,0a7.08,7.08,0,0,0-6.6-5.65l-.45-13.25.19,0a4.58,4.58,0,0,0,2.65-1.61ZM72.49,339.68a7.07,7.07,0,0,0-8.7,7.73L33,353.74a10.61,10.61,0,0,0-17.77-4.81l-28.16-24.38a7,7,0,0,0,1.11-5.44,7.09,7.09,0,0,0-6.81-5.66l-2.92-31.61h0A7.07,7.07,0,0,0-16,273.47a7,7,0,0,0-1.36-2.94L2.64,250.92a7.08,7.08,0,0,0,11.58-5.52l32.94-3.88A7.1,7.1,0,0,0,53.34,247l.18,22.55c-.2,0-.39.05-.59.09a7.09,7.09,0,0,0-3.21,12.3L37.94,298.05a4.62,4.62,0,1,0,2.3,3.12,4.59,4.59,0,0,0-1.36-2.43L50.67,282.6a7.06,7.06,0,0,0,8.64-1l21.41,17.52a7.07,7.07,0,0,0,2.81,10.2Z"/></g></g></g></svg>