<svg xmlns="http://www.w3.org/2000/svg" xmlns:xlink="http://www.w3.org/1999/xlink" viewBox="0 0 708.66 270.97"><defs><style>.cls-1{fill:none;}.cls-2{isolation:isolate;}.cls-3{mix-blend-mode:multiply;}.cls-4{fill:#fff;}.cls-5{fill:#00ade4;}.cls-6{clip-path:url(#clip-path);}.cls-7{opacity:0.3;}.cls-8{clip-path:url(#clip-path-3);}</style><clipPath id="clip-path"><path class="cls-1" d="M100.85,2.65,99,0,16.86,81.65a56.58,56.58,0,0,0-12.49,18.7A61.71,61.71,0,0,0,0,123a59.38,59.38,0,0,0,.25,7.32,25.66,25.66,0,0,0,1.2,5.71A55.14,55.14,0,0,0,6,146q1.63,2.9,3.8,6.22h0l0,.05c1.27,1.95,2.67,4,4.25,6.24l4.14,5.74,12.05,17.19,11.29-11.28,2.19-2.22,7.09-7.09,1.32-1.34.07-.06.2-.21a.47.47,0,0,0,.07-.12A12.8,12.8,0,0,0,55,151.89c0-.31,0-.64.06-1,0-.15,0-.27,0-.42h0a16.78,16.78,0,0,0-2.08-7.89l-10.2-14.68a13.75,13.75,0,0,1-1.17-2.37,18.08,18.08,0,0,1-.8-2.8,13.31,13.31,0,0,1,.58-7.29,21.28,21.28,0,0,1,4.93-7.33L95.45,59.36A52,52,0,0,0,107,40.53C111.33,27.68,109.21,14.59,100.85,2.65Z"/></clipPath><clipPath id="clip-path-3"><path class="cls-1" d="M11.52,268.31,13.38,271l82.13-81.65A56.58,56.58,0,0,0,108,170.62a61.75,61.75,0,0,0,4.35-22.68,57.57,57.57,0,0,0-.26-7.33,26.41,26.41,0,0,0-1.19-5.71,54.88,54.88,0,0,0-4.54-9.89c-1.09-1.93-2.35-4-3.8-6.21h0l0,0c-1.27-2-2.68-4-4.26-6.25l-4.14-5.73-12-17.2L70.79,100.86l-2.19,2.22-7.09,7.09-1.32,1.33-.06.07-.21.21a.67.67,0,0,1-.07.11,12.9,12.9,0,0,0-2.43,7.18c0,.32-.05.65-.06,1,0,.14,0,.26,0,.41h0a16.84,16.84,0,0,0,2.09,7.9l10.19,14.68a13.78,13.78,0,0,1,1.18,2.37,18.9,18.9,0,0,1,.8,2.8A13.37,13.37,0,0,1,71,155.5a21.06,21.06,0,0,1-4.92,7.33L16.92,211.61A51.88,51.88,0,0,0,5.38,230.43C1,243.28,3.15,256.38,11.52,268.31Z"/></clipPath></defs><g class="cls-2"><g id="Layer_1" data-name="Layer 1"><g class="cls-3"><path class="cls-4" d="M216,190.14a54.57,54.57,0,0,1-21-3.89,64.71,64.71,0,0,1-18.13-11.67l4.72-5.42a69.68,69.68,0,0,0,8,6.46,45,45,0,0,0,8.13,4.45,46,46,0,0,0,8.76,2.64,51.92,51.92,0,0,0,10,.9,33,33,0,0,0,10-1.46,23.76,23.76,0,0,0,7.78-4,18.7,18.7,0,0,0,5-6.11,16.82,16.82,0,0,0,1.8-7.71V164a19.15,19.15,0,0,0-1.18-7,13.32,13.32,0,0,0-4.3-5.56,31.35,31.35,0,0,0-8.41-4.51,86.12,86.12,0,0,0-13.62-3.68,95.09,95.09,0,0,1-15-4.24,37,37,0,0,1-10.22-5.7,19.5,19.5,0,0,1-5.76-7.57,25.22,25.22,0,0,1-1.81-9.87v-.28A22,22,0,0,1,183,105.59a25.86,25.86,0,0,1,6.53-8.13A31,31,0,0,1,199.42,92a38.69,38.69,0,0,1,12.5-1.94A51.55,51.55,0,0,1,230.2,93a54.74,54.74,0,0,1,15.07,8.89l-4.58,5.7a41.73,41.73,0,0,0-29-11,30.94,30.94,0,0,0-9.8,1.46,23.87,23.87,0,0,0-7.5,4,17.41,17.41,0,0,0-4.8,5.83,15.69,15.69,0,0,0-1.66,7.09v.28a19.63,19.63,0,0,0,1.18,7,13.62,13.62,0,0,0,4.3,5.7,30.59,30.59,0,0,0,8.69,4.66,100,100,0,0,0,14.17,3.89q17,3.47,24.46,9.79t7.5,17v.28a24,24,0,0,1-2.43,10.77,25.18,25.18,0,0,1-6.67,8.41A31.29,31.29,0,0,1,229,188.19,41.28,41.28,0,0,1,216,190.14Z"/><path class="cls-4" d="M317.52,150.26,275.84,91.49h9l36.41,52.24,36.54-52.24h8.61l-41.68,58.63v38.63h-7.23Z"/><path class="cls-4" d="M399.22,91.49H406l67.11,84.62V91.49h6.95v97.26h-5.42l-68.5-86.43v86.43h-6.95Z"/><path class="cls-4" d="M522.89,91.49h69.19V98h-62v38.49h55.72V143H530.11v39.18h62.66v6.53H522.89Z"/><path class="cls-4" d="M661.28,139.15,623.9,91.49h8.62l33.2,42.79L698.8,91.49h8.47L670,139l38.63,49.74H700l-34.59-44.88L631,188.75h-8.48Z"/></g><path class="cls-5" d="M100.85,2.65,99,0,16.86,81.65a56.58,56.58,0,0,0-12.49,18.7A61.71,61.71,0,0,0,0,123a59.38,59.38,0,0,0,.25,7.32,25.66,25.66,0,0,0,1.2,5.71A55.14,55.14,0,0,0,6,146q1.63,2.9,3.8,6.22h0l0,.05c1.27,1.95,2.67,4,4.25,6.24l4.14,5.74,12.05,17.19,11.29-11.28,2.19-2.22,7.09-7.09,1.32-1.34.07-.06.2-.21a.47.47,0,0,0,.07-.12A12.8,12.8,0,0,0,55,151.89c0-.31,0-.64.06-1,0-.15,0-.27,0-.42h0a16.78,16.78,0,0,0-2.08-7.89l-10.2-14.68a13.75,13.75,0,0,1-1.17-2.37,18.08,18.08,0,0,1-.8-2.8,13.31,13.31,0,0,1,.58-7.29,21.28,21.28,0,0,1,4.93-7.33L95.45,59.36A52,52,0,0,0,107,40.53C111.33,27.68,109.21,14.59,100.85,2.65Z"/><path class="cls-5" d="M11.52,268.31,13.38,271l82.13-81.65A56.58,56.58,0,0,0,108,170.62a61.75,61.75,0,0,0,4.35-22.68,57.57,57.57,0,0,0-.26-7.33,26.41,26.41,0,0,0-1.19-5.71,54.88,54.88,0,0,0-4.54-9.89c-1.09-1.93-2.35-4-3.8-6.21h0l0,0c-1.27-2-2.68-4-4.26-6.25l-4.14-5.73-12-17.2L70.79,100.86l-2.19,2.22-7.09,7.09-1.32,1.33-.06.07-.21.21a.67.67,0,0,1-.07.11,12.9,12.9,0,0,0-2.43,7.18c0,.32-.05.65-.06,1,0,.14,0,.26,0,.41h0a16.84,16.84,0,0,0,2.09,7.9l10.19,14.68a13.78,13.78,0,0,1,1.18,2.37,18.9,18.9,0,0,1,.8,2.8A13.37,13.37,0,0,1,71,155.5a21.06,21.06,0,0,1-4.92,7.33L16.92,211.61A51.88,51.88,0,0,0,5.38,230.43C1,243.28,3.15,256.38,11.52,268.31Z"/><g class="cls-6"><g class="cls-7"><path class="cls-4" d="M-32.48,152.56a5.85,5.85,0,0,0-1.69,4.18,5.86,5.86,0,0,0,5.92,5.81,5.88,5.88,0,0,0,5.81-5.93c0-.06,0-.11,0-.17l40.58-7.12a5.85,5.85,0,0,0,8.73,3.18l10.33,12.3a5.86,5.86,0,1,0,9.69,6.32l15.44,5.68c0,.05,0,.1,0,.16a1.54,1.54,0,1,0,1.52-1.55,1.5,1.5,0,0,0-1.24.65L47.15,170.4a6,6,0,0,0,.24-1.71,5.87,5.87,0,0,0-9-4.89L28.05,151.51a5.85,5.85,0,0,0-1-8.74l8.77-15.59a3.72,3.72,0,0,0,1.38.25,3.83,3.83,0,0,0,2.84-1.32l8.69,5.47a3.72,3.72,0,0,0-.32,1.56,3.87,3.87,0,1,0,1-2.54l-8.69-5.47a4.06,4.06,0,0,0,.32-1.56,3.83,3.83,0,1,0-6.19,3l-8.76,15.6a5.75,5.75,0,0,0-2.41-.5,5.87,5.87,0,0,0-5.81,5.92c0,.06,0,.12,0,.18l-40.58,7.11a5.89,5.89,0,0,0-1.4-2.33l15.54-18.64a3.73,3.73,0,0,0,2,.56,3.82,3.82,0,0,0,3.79-3.87A3.81,3.81,0,0,0-5,127.21l7.09-24.68a3.15,3.15,0,0,0,.52,0,3.83,3.83,0,0,0-.07-7.66,1.33,1.33,0,0,0-.21,0L-.8,80.9a3.82,3.82,0,0,0,2.44-3.6,3.83,3.83,0,0,0-3.06-3.71L.45,54.85a1.53,1.53,0,0,0-.26-3,1.52,1.52,0,0,0-1.51,1.54,1.51,1.51,0,0,0,1,1.42L-2.2,73.51h0A3.82,3.82,0,0,0-6,77l-22.27,1.47a3.82,3.82,0,0,0-3.77-3,3.82,3.82,0,0,0-3.79,3.87A3.83,3.83,0,0,0-34.72,82l-3,3.55a1.5,1.5,0,0,0-.67-.15,1.53,1.53,0,0,0-1.51,1.55,1.52,1.52,0,0,0,1.54,1.51A1.52,1.52,0,0,0-36.8,86.9a1.56,1.56,0,0,0-.28-.88l3-3.54a3.87,3.87,0,0,0,2.18.66,3.82,3.82,0,0,0,3.75-3.5l22.27-1.47a3.82,3.82,0,0,0,3.77,3l.21,0,3.13,14a3.81,3.81,0,0,0-.22,7l-7.1,24.67a4.36,4.36,0,0,0-.52,0,3.83,3.83,0,0,0-3.79,3.87,3.76,3.76,0,0,0,1,2.48L-25,151.83a5.83,5.83,0,0,0-3.35-1,5.86,5.86,0,0,0-2.88.79L-52,124.79a5.82,5.82,0,0,0,1.69-4.18,5.86,5.86,0,0,0-4.2-5.57l3.92-17.5A1.53,1.53,0,0,0-49.12,96a1.53,1.53,0,0,0-1.55-1.52A1.53,1.53,0,0,0-52.19,96a1.54,1.54,0,0,0,.83,1.34l-3.92,17.51a5,5,0,0,0-1-.07,5.85,5.85,0,0,0-5.8,5.92,5.85,5.85,0,0,0,5.92,5.8,5.86,5.86,0,0,0,2.88-.79Z"/><path class="cls-4" d="M228.59,25.64a5.41,5.41,0,0,0-1.21.14L219.23,1a3.8,3.8,0,0,0,2.09-3.43,3.8,3.8,0,0,0-2.19-3.41l2.32-7.82a3.31,3.31,0,0,0,.55,0,3.83,3.83,0,0,0,3.79-3.87,3.84,3.84,0,0,0-3.87-3.79A3.82,3.82,0,0,0,219.18-20l-4.12-3.18a1.51,1.51,0,0,0,.12-.61,1.53,1.53,0,0,0-1.55-1.51,1.53,1.53,0,0,0-1.52,1.55,1.53,1.53,0,0,0,1.55,1.51,1.49,1.49,0,0,0,.92-.32l4.13,3.17a3.8,3.8,0,0,0-.58,2.05,3.8,3.8,0,0,0,2.2,3.41L218-6.13a3.41,3.41,0,0,0-.55,0,3.82,3.82,0,0,0-3.79,3.87,3.83,3.83,0,0,0,3.86,3.79,5.6,5.6,0,0,0,.59-.07l8.15,24.74A5.85,5.85,0,0,0,223.93,35L203.67,54.49A5.86,5.86,0,0,0,195,56.1L139.84,32.69a6.08,6.08,0,0,0,.22-1.61,5.88,5.88,0,0,0-1.14-3.4L168.1-.25A5.88,5.88,0,0,0,171.82,1a5.87,5.87,0,0,0,5.8-5.92c0-.12,0-.24,0-.35l11.79-2.43A5.88,5.88,0,0,0,195-3.73a5.88,5.88,0,0,0,5.8-5.93A5.83,5.83,0,0,0,198-14.6L209.9-41.8a6.2,6.2,0,0,0,1.68.23,5.88,5.88,0,0,0,5.81-5.93,5.88,5.88,0,0,0-5.93-5.8,5.85,5.85,0,0,0-5.8,5.92,5.86,5.86,0,0,0,2.82,5l-11.93,27.2a5.55,5.55,0,0,0-1.68-.23,5.86,5.86,0,0,0-5.81,5.92c0,.12,0,.23,0,.35L177.29-6.77A5.88,5.88,0,0,0,172-10.69l-2.15-22.7a5.87,5.87,0,0,0,4.54-5.77A5.87,5.87,0,0,0,168.45-45a5.87,5.87,0,0,0-5.8,5.59l-26,1.38a3.83,3.83,0,0,0-3.79-3A3.83,3.83,0,0,0,129-37.18a3.83,3.83,0,0,0,3.87,3.79,3.81,3.81,0,0,0,3.75-3.45l25.2-1.33L67.18-13.39c-.09-.2-.18-.4-.28-.59L96.58-34.27a3.76,3.76,0,0,0,2.82,1.21,3.83,3.83,0,0,0,3.79-3.86,3.82,3.82,0,0,0-3.87-3.79,3.83,3.83,0,0,0-3.79,3.86,3.78,3.78,0,0,0,.39,1.61L66.24-14.94A5.82,5.82,0,0,0,61.7-17h-.31l-5.32-26.9-1.53.3,5.32,26.9a5.86,5.86,0,0,0-4,5.61,5.85,5.85,0,0,0,5.92,5.8,5.83,5.83,0,0,0,3.94-1.57L86.51,10.17a5.82,5.82,0,0,0,.75,7.14L73,35.25a5.69,5.69,0,0,0-3.06-.83A5.86,5.86,0,1,0,74,44.51L93.42,60a5.85,5.85,0,0,0,.65,6.92L70.18,94.73a5.84,5.84,0,0,0-2.63-.92l0-9.73a3.85,3.85,0,1,0-3.92-1.89l-5.69,4.48a3.79,3.79,0,0,0-2.64-1,3.85,3.85,0,0,0-1.93.56L41.57,72a3.81,3.81,0,0,0-2.9-6.35h0l-1.38-12a1.54,1.54,0,1,0-.77.08l1.38,12a3.78,3.78,0,0,0-2.14,1.33l-12.3-7.21a4.1,4.1,0,0,0,.27-1.45,3.83,3.83,0,1,0-3.79,3.87,3.78,3.78,0,0,0,2.91-1.42L35.15,68.1A3.62,3.62,0,0,0,35,70.54L17.85,77.32a1.53,1.53,0,1,0,.3.89c0-.06,0-.11,0-.17l17.19-6.78a3.9,3.9,0,0,0,1.2,1.38l-14.1,28.83a5.86,5.86,0,1,0,3.82,5.44v-.08l35.13-5.51a5.86,5.86,0,1,0,10-5.57L95.25,67.88a5.87,5.87,0,1,0-.86-9.14L75,43.29a5.83,5.83,0,0,0-.8-7.07L88.48,18.28a5.81,5.81,0,0,0,7-.72l12.37,11A3.83,3.83,0,1,0,111,26.82a3.78,3.78,0,0,0-2.39.89l-12.38-11a5.86,5.86,0,0,0-4.8-9.3A5.8,5.8,0,0,0,87.49,9l-20.75-17a5.92,5.92,0,0,0,.88-3.15,4.89,4.89,0,0,0-.05-.66l95.51-25a3.55,3.55,0,0,0,.21.44l-14.46,9.33a3.8,3.8,0,0,0-2.89-1.3,3.84,3.84,0,0,0-3.79,3.87A3.83,3.83,0,0,0,146-20.75a3.82,3.82,0,0,0,3.79-3.86,3.72,3.72,0,0,0-.33-1.53l14.44-9.31a5.87,5.87,0,0,0,4.36,2.2l2.15,22.7a5.87,5.87,0,0,0-4.54,5.77A5.92,5.92,0,0,0,167-1.38L137.85,26.55A5.86,5.86,0,1,0,133,36.87l-2,26.68a8.79,8.79,0,0,0-2.56,17.17l-2.78,12.4a5.43,5.43,0,0,0-.57,0,5.87,5.87,0,1,0,5.35,8.37L160,113.18c0,.06,0,.12,0,.19a1.55,1.55,0,1,0,.3-.92l-29.61-11.7a5.64,5.64,0,0,0,.28-1.85,4.89,4.89,0,0,0,0-.54l51.63-10.62a3.8,3.8,0,1,0-.25-1.29s0,.1,0,.15L130.68,97.22a5.93,5.93,0,0,0-3.57-3.76l2.78-12.41a8.32,8.32,0,0,0,1.24.09,8.79,8.79,0,0,0,1.35-17.47l2-26.69a5.83,5.83,0,0,0,4.71-2.86l55.14,23.41a5.69,5.69,0,0,0-.21,1.61,5.87,5.87,0,0,0,4.7,5.69l-2.79,42.08a5.86,5.86,0,1,0,6,7.53l11.35,2.61a1.52,1.52,0,1,0,.17-.76l-11.36-2.61a6.37,6.37,0,0,0,.08-1,5.85,5.85,0,0,0-4.7-5.69l2.79-42.09a5.86,5.86,0,0,0,5-3.62l15.67,5.24s0,.08,0,.12a1.53,1.53,0,1,0,1.52-1.55,1.51,1.51,0,0,0-1.27.69l-15.67-5.24a6,6,0,0,0,.2-1.54,5.84,5.84,0,0,0-1.14-3.41L225,36.1a5.87,5.87,0,1,0,3.58-10.46ZM26,105.3A5.83,5.83,0,0,0,23.46,102L37.58,73.15a4.09,4.09,0,0,0,1.17.19,3.81,3.81,0,0,0,1.92-.56L52.44,86.94a3.82,3.82,0,1,0,6.69,2.48,3.7,3.7,0,0,0-.51-1.83l5.69-4.48a3.83,3.83,0,0,0,2,1l0,9.73a5.86,5.86,0,0,0-5.26,5.89s0,.05,0,.07Z"/><path class="cls-4" d="M144.7,206.7a3.84,3.84,0,0,0-3.79,3.87,3.92,3.92,0,0,0,.3,1.42l-4.86,2.95a3.81,3.81,0,0,0-6.75,2.49.77.77,0,0,0,0,.15l-29.57,6.08a3.81,3.81,0,0,0-3.61-2.5l-.21,0L88.71,187a3.79,3.79,0,0,0,2.39-3l13,.66a1.53,1.53,0,0,0,3-.32,1.53,1.53,0,0,0-1.55-1.52,1.52,1.52,0,0,0-1.44,1.07l-13-.67a3.8,3.8,0,0,0-3.25-3.58l0-9.95a5.86,5.86,0,0,0,.46-11.59L89.89,128a5.87,5.87,0,0,0,4.38-9.14l11.52-9.66a3.89,3.89,0,1,0-.75-.9L93.52,118a5.87,5.87,0,0,0-8.91,7.55L60.54,147.63a5.85,5.85,0,1,0,1.05,1.14l24.08-22.12a5.71,5.71,0,0,0,2.67,1.26l-1.59,30.17a5.86,5.86,0,0,0-.08,11.68l.06,10a3.8,3.8,0,0,0-2.57,5.9l-5.91,4.93a1.51,1.51,0,0,0-.9-.29,1.52,1.52,0,1,0,1.4.88l5.9-4.92a3.76,3.76,0,0,0,2.72,1.09l.21,0,7.52,34.15a3.81,3.81,0,0,0-.87,6.65L88,238.9a1.85,1.85,0,0,0-.42-.06,1.54,1.54,0,1,0,1.55,1.52,1.52,1.52,0,0,0-.45-1.07l6.27-10.82a3.9,3.9,0,0,0,1.6.35,3.82,3.82,0,0,0,1.79-.48l8.58,12.5a1.53,1.53,0,0,0,1.18,2.53,1.53,1.53,0,0,0,0-3.06,1.58,1.58,0,0,0-.49.09l-8.59-12.5a3.78,3.78,0,0,0,1.36-3s0-.1,0-.15l29.56-6.08a3.85,3.85,0,0,0,.91,1.42l-7.32,10.3a3.88,3.88,0,0,0-1.74-.42,3.83,3.83,0,0,0,0,7.66l1.61,16.18a1.52,1.52,0,1,0,.77-.08l-1.6-16.18a3.81,3.81,0,0,0,1.9-6.49l7.32-10.31a3.71,3.71,0,0,0,1.75.42,3.83,3.83,0,0,0,3.79-3.87,3.76,3.76,0,0,0-.3-1.42l4.86-3a3.82,3.82,0,1,0,2.88-6.28Z"/><path class="cls-4" d="M113.94,290.42a3.75,3.75,0,0,0-2.45,1.83l-15.12-5.84a5.75,5.75,0,0,0,.06-2.86,5.87,5.87,0,0,0-7-4.41,5.78,5.78,0,0,0-3.1,1.86l-15-9.93a5.86,5.86,0,0,0-6.46-8.3l-7.65-21.9a5.84,5.84,0,1,0-1.47.52l7.65,21.89a6.2,6.2,0,0,0-1.29.9L48.44,251.87a3.82,3.82,0,1,0-6.83-3.26L26.3,246.18a3.68,3.68,0,0,0-.09-.87,3.86,3.86,0,1,0-.1,2l15.31,2.43a3.68,3.68,0,0,0,.09.87,3.83,3.83,0,0,0,4.58,2.88,3.69,3.69,0,0,0,1.56-.77l13.7,12.31a5.8,5.8,0,0,0-1,4.76,5.85,5.85,0,0,0,10.12,2.56l15,9.92a5.85,5.85,0,0,0-.59,2.62l-37.3,5.34a5.86,5.86,0,0,0-10.26-2l-16.84-9.87a5.77,5.77,0,1,0-.78,1.35l16.84,9.86a5.77,5.77,0,0,0,.39,5.3l-12.78,9.59a3.83,3.83,0,1,0,1.06,1.89,3.91,3.91,0,0,0-.37-1l12.79-9.59a5.88,5.88,0,0,0,5.62,1.75l.19-.06,9.9,26.4a3.8,3.8,0,1,0,1.09-.42l-9.89-26.39a5.83,5.83,0,0,0,3.26-5.3l37.31-5.34A5.86,5.86,0,0,0,96,287.5l15.11,5.84a3.87,3.87,0,0,0,0,1.66,3.83,3.83,0,1,0,2.88-4.58Z"/><path class="cls-4" d="M-32.25,11.54a5.86,5.86,0,0,0,5.81-5.92,2.45,2.45,0,0,0,0-.27l15.47-3A5.75,5.75,0,0,0-9.7,4.52l-8.2,8.8a1.53,1.53,0,0,0-.74-.18,1.54,1.54,0,0,0-1.52,1.54,1.54,1.54,0,0,0,1.55,1.52,1.53,1.53,0,0,0,1.52-1.55,1.48,1.48,0,0,0-.24-.8l8.19-8.8A5.86,5.86,0,0,0-5.38,6.37,5.86,5.86,0,0,0,.42.65L9.88.27a1.53,1.53,0,0,0,1.48,1.08A1.53,1.53,0,0,0,12.87-.2a1.53,1.53,0,0,0-1.54-1.52A1.54,1.54,0,0,0,9.85-.51L.39-.12A5.87,5.87,0,0,0-4-5.18l3-16.4A1.51,1.51,0,0,0,.35-23.11,1.53,1.53,0,0,0-1.2-24.63a1.53,1.53,0,0,0-1.51,1.55,1.52,1.52,0,0,0,.88,1.37L-4.78-5.32a5.63,5.63,0,0,0-.71,0A5.87,5.87,0,0,0-11.3.56a2.46,2.46,0,0,0,0,.28l-15.47,3a5.85,5.85,0,0,0-5.62-4,5.86,5.86,0,0,0-5.8,5.92A5.85,5.85,0,0,0-32.25,11.54Z"/><path class="cls-4" d="M-13.35,240.64a5.86,5.86,0,0,0,5.81-5.92,6.19,6.19,0,0,0-.23-1.56l18.82-8.24a5.86,5.86,0,0,0,10.31-5.53L27,215.78a5.86,5.86,0,1,0-.84-1.31l-5.64,3.62a5.85,5.85,0,0,0-9,0L-13.35,201a3.82,3.82,0,0,0,.39-1.69,3.83,3.83,0,0,0-3.87-3.79,3.83,3.83,0,0,0-3.79,3.87,3.83,3.83,0,0,0,3.87,3.79A3.82,3.82,0,0,0-14,201.92l24.93,17.13a5.87,5.87,0,0,0-.73,2.88,5.65,5.65,0,0,0,.23,1.56L-8.4,231.74a5.86,5.86,0,0,0-5.07-2.83,5.91,5.91,0,0,0-2.89.81l-14.27-18.31a5.86,5.86,0,0,0,1.68-4.16,5.87,5.87,0,0,0-5.92-5.81,5.87,5.87,0,0,0-5.81,5.92,5.86,5.86,0,0,0,5.92,5.81,5.81,5.81,0,0,0,2.9-.8l14.27,18.3a5.9,5.9,0,0,0-1.56,2.92L-47,230.65A3.82,3.82,0,0,0-50.89,227a3.83,3.83,0,0,0-3.79,3.87,3.83,3.83,0,0,0,3.87,3.79,3.82,3.82,0,0,0,3.65-2.86l27.89,2.94v.09a5.85,5.85,0,0,0,3,5l-10.06,24.86a5.51,5.51,0,0,0-1.52-.19,5.86,5.86,0,0,0-5.81,5.92,5.88,5.88,0,0,0,5.93,5.81,5.87,5.87,0,0,0,5.56-4.2l11.26,2.53a1.53,1.53,0,0,0,1.55,1.48,1.55,1.55,0,0,0,1.52-1.55A1.54,1.54,0,0,0-9.43,273a1.5,1.5,0,0,0-1.34.83L-22,271.31a5.22,5.22,0,0,0,.07-1,5.85,5.85,0,0,0-3-5l10.07-24.86A5.39,5.39,0,0,0-13.35,240.64Z"/></g></g><g class="cls-6"><path class="cls-4" d="M254.4,177.3a1.84,1.84,0,0,0-2-1.45l-3.54-10.44a7.09,7.09,0,1,0-7.7-1.62l-22,27a7.1,7.1,0,0,0-5.28-1,7,7,0,0,0-3.08,1.47l-12.84-13.18a4.63,4.63,0,0,0-3.12-7.48l-.54-29.44.27,0a4.63,4.63,0,1,0-1.87-9.07h0l-9.73-28.12a4.62,4.62,0,0,0,2.48-5.07,4.89,4.89,0,0,0-.34-1L203.8,86a4.63,4.63,0,0,0,4.51,1.59,4.56,4.56,0,0,0,2.46-1.39l4.38,3.42a1.85,1.85,0,1,0,1.29-1,1.82,1.82,0,0,0-.81.4l-4.38-3.42a4.63,4.63,0,1,0-8.41-1.6,4.89,4.89,0,0,0,.34,1L184.41,96.86a4.66,4.66,0,0,0-4.51-1.6,4.6,4.6,0,0,0-.66.2l-5.72-12.23a1.83,1.83,0,0,0,.7-1.84,1.85,1.85,0,1,0-1.44,2.19h0l5.71,12.22a4.62,4.62,0,0,0,3.24,8.54h0l9.73,28.11a4.62,4.62,0,0,0,1.56,8.74l.53,29.44-.26,0a4.62,4.62,0,0,0,1.86,9.06,4.54,4.54,0,0,0,1.85-.84l12.84,13.19a7,7,0,0,0-1.72,4.22l-32.5,1.63c0-.1,0-.2,0-.3a7.09,7.09,0,0,0-8.37-5.51,7,7,0,0,0-2,.77l-6.07-8.95a4.63,4.63,0,1,0-7.62-4.28l-18.24-.89a3.85,3.85,0,0,0-.08-.58,4.65,4.65,0,1,0,0,1.74l18.25.89a5.41,5.41,0,0,0,.07.58A4.64,4.64,0,0,0,157,185a5,5,0,0,0,1.16-.41l6.07,9a7.06,7.06,0,0,0,.47,11.37L155.66,222a7.07,7.07,0,0,0-8.36,2.47l-29.71-17.75a7.08,7.08,0,1,0-13.44-3.25l-22.49,2.08h0a7.09,7.09,0,0,0-12.5-3l-15-10a4.62,4.62,0,1,0-8.7-2.81l-9.86-.35-.9-9.17-1.54.15.87,9-20.54-.74a6.75,6.75,0,0,0-.13-1.09,7.08,7.08,0,0,0-4.07-5.05l11-34.61a10.48,10.48,0,0,0,4.6.08,10.61,10.61,0,0,0,8.36-12L64,129.71a7.09,7.09,0,0,0,8.22,4.95A7,7,0,0,0,75.49,133l20.13,18.35a7.08,7.08,0,1,0,12.8,4.33l46.9-4.07a.06.06,0,0,0,0,0,7.09,7.09,0,1,0,1.76-6.26l-16.31-12.87a4.57,4.57,0,0,0,.57-3.32,4.5,4.5,0,0,0-.78-1.77l10.18-8.73a1.84,1.84,0,0,0,2.93-1.84,1.85,1.85,0,0,0-3.63.74,1.75,1.75,0,0,0,.2.51l-10.18,8.73a4.75,4.75,0,0,0-1.12-.82l10.49-28.68a4.6,4.6,0,1,0-1.1-.4l-10.49,28.68a4.62,4.62,0,0,0-4.52,1.48L120.82,118a1.8,1.8,0,0,0,.13-1.13,1.87,1.87,0,1,0-.59,1.76l12.52,9.17a4.54,4.54,0,0,0-.21,4.43l-14,9.14-14-8.74a4.62,4.62,0,1,0-4.63,2.67l.46,13.25-.6.09a7,7,0,0,0-3.25,1.63L76.54,131.88A7.06,7.06,0,0,0,74,121.37L85,91a7,7,0,0,0,3.1.06,7.08,7.08,0,0,0,3-12.48L111.7,47.87a7.07,7.07,0,0,0,4.87.76,6.85,6.85,0,0,0,1.37-.44l8.65,16.27a4.63,4.63,0,1,0,1.74-.75,4.16,4.16,0,0,0-.71.21L119,47.64a7.08,7.08,0,0,0,2.76-3.36l33,9a7,7,0,0,0,0,2.53A7.08,7.08,0,0,0,168,57.49l13.38,5.32a4.55,4.55,0,0,0,0,2.08,4.62,4.62,0,1,0,.48-3.17l-13.37-5.31a7.11,7.11,0,0,0,.16-3.5,6.37,6.37,0,0,0-.21-.78l26.41-12a7.08,7.08,0,1,0-.86-2.21,5.09,5.09,0,0,0,.21.79l-26.41,12a7.08,7.08,0,0,0-12.67,1l-32.94-9a7.13,7.13,0,0,0-.06-2.52,7.06,7.06,0,0,0-4-5l7.06-21.06a7.09,7.09,0,0,0,8.44-8.35A7.13,7.13,0,0,0,133,4.13L149.78-6a4.61,4.61,0,0,0,4.56,1.67,4.51,4.51,0,0,0,2.39-1.31L164.66,4a7.05,7.05,0,0,0-2.15,6.63,6.92,6.92,0,0,0,.46,1.44L147,20.22a1.85,1.85,0,1,0-1.05,3A1.86,1.86,0,0,0,147.41,21l0-.1,16-8.11a7.08,7.08,0,0,0,7.16,3.45l3.08,14.93a1.87,1.87,0,1,0,.76-.15l-3.07-14.94a7.09,7.09,0,0,0,5.26-6.4L208,8.22a1.77,1.77,0,0,0,0,.32,7.1,7.1,0,1,0-.13-1.87l-31.5,1.47a1.77,1.77,0,0,0-.05-.32,7.07,7.07,0,0,0-11.13-4.28l-8-9.75a4.63,4.63,0,0,0,.71-3.54,4.43,4.43,0,0,0-.52-1.37l25.71-19.47a4.64,4.64,0,0,0,4.24,1.3,4.64,4.64,0,0,0,3.6-5.47,4.64,4.64,0,0,0-5.47-3.6,4.64,4.64,0,0,0-3.6,5.47,4.94,4.94,0,0,0,.53,1.37L156.72-12a4.62,4.62,0,0,0-4.24-1.3,4.61,4.61,0,0,0-3.6,5.46,4.3,4.3,0,0,0,.3.94L132.42,3.13a7.09,7.09,0,0,0-7.18-2.8,7.47,7.47,0,0,0-1.14.34L111.86-22.78a7.1,7.1,0,0,0,3-7.31,7.09,7.09,0,0,0-8.37-5.51A7.07,7.07,0,0,0,101-27.24a7.09,7.09,0,0,0,8.37,5.52,7.15,7.15,0,0,0,1.14-.34L122.72,1.39a7.08,7.08,0,0,0,1,12.31l-7.06,21.06a7.22,7.22,0,0,0-2.93,0,7.09,7.09,0,0,0-3,12.48L90.11,78a7,7,0,0,0-8.4,1.13L60.3,61.57a7.09,7.09,0,0,0-5.22-10.91L54.9,28.12l.59-.09a7.08,7.08,0,0,0,3.29-12.22l20.31-28.5a7,7,0,0,0,4.87.75A7,7,0,0,0,87-13.4l7.55,8.24a1.81,1.81,0,0,0-.31,1.44,1.86,1.86,0,0,0,2.19,1.44A1.85,1.85,0,0,0,97.9-4.47a1.85,1.85,0,0,0-2.19-1.44,1.82,1.82,0,0,0-.56.22L87.6-13.92a7.1,7.1,0,0,0,1.88-6.39,7.09,7.09,0,0,0-8.37-5.51,7.1,7.1,0,0,0-5.52,8.37,7,7,0,0,0,2.23,3.85L57.51,14.9a7,7,0,0,0-8.18.92L36,3.23a4.64,4.64,0,0,0,.8-3.66A4.63,4.63,0,0,0,31.33-4a4.61,4.61,0,0,0-3.6,5.46A4.63,4.63,0,0,0,33.19,5a4.76,4.76,0,0,0,2-1L48.53,16.66A7.09,7.09,0,0,0,47,21.13L14,25A7.1,7.1,0,0,0,3.14,20.74l-7.2-8.88A4.66,4.66,0,0,0-2.87,7.73a4.63,4.63,0,0,0-5.47-3.6,4.62,4.62,0,0,0-3.6,5.46,4.62,4.62,0,0,0,5.46,3.6A4.55,4.55,0,0,0-5,12.59l7.21,8.89A7.08,7.08,0,0,0,.07,26.1l-15.16.2c0-.1,0-.19-.05-.29a4.62,4.62,0,0,0-5.46-3.6,4.62,4.62,0,0,0-3.6,5.46,4.61,4.61,0,0,0,5.46,3.6,4.63,4.63,0,0,0,3.67-4l15.15-.2A6.87,6.87,0,0,0,1.56,31L-18.5,50.57a7.07,7.07,0,0,0-5.91-1.47,7.06,7.06,0,0,0-4.67,3.34L-59.54,38.71a7.09,7.09,0,0,0,.21-3.61,7.09,7.09,0,0,0-8.37-5.52,7,7,0,0,0-4.39,2.91L-96.35,19.34a7.11,7.11,0,0,0,.38-4.1,7.09,7.09,0,0,0-8.37-5.51,7.07,7.07,0,0,0-5.52,8.36,7.09,7.09,0,0,0,8.37,5.52A7,7,0,0,0-97.1,20.7l24.26,13.15a7.11,7.11,0,0,0-.38,4.1,7.09,7.09,0,0,0,8.37,5.51,7,7,0,0,0,4.67-3.34l30.46,13.74a7.09,7.09,0,0,0-.21,3.61,7.1,7.1,0,0,0,6.82,5.66l2.92,31.62h0a7.08,7.08,0,0,0-5.51,8.37,7.15,7.15,0,0,0,1.12,2.62l-32.77,28.59a7.08,7.08,0,0,0-6.22-1.72,7,7,0,0,0-4.15,2.57l-28.88-17.86a7,7,0,0,0,.55-4.46,7.09,7.09,0,0,0-6.19-5.62l.46-20a3.65,3.65,0,0,0,.46-.07,4.62,4.62,0,0,0,3.65-3.9l11.88.62a.22.22,0,0,0,0,.08,1.84,1.84,0,0,0,2.18,1.44,1.85,1.85,0,0,0,1.45-2.19,1.86,1.86,0,0,0-2.19-1.44,1.86,1.86,0,0,0-1.41,1.33l-11.88-.62a5.18,5.18,0,0,0-.09-.78,4.63,4.63,0,0,0-5.47-3.6l-.44.11L-113,57.79a4.63,4.63,0,0,0,2.1-4.86,4.6,4.6,0,0,0-.3-.93l10.4-5.66A1.86,1.86,0,0,0-99,47a1.85,1.85,0,0,0,1.44-2.18,1.86,1.86,0,0,0-2.19-1.45,1.86,1.86,0,0,0-1.44,2.19c0,.05,0,.1,0,.15l-10.4,5.66a4.62,4.62,0,0,0-4.79-2A4.63,4.63,0,0,0-120,54.79a4.64,4.64,0,0,0,5.47,3.61c.15,0,.3-.07.44-.12l9.35,20.47a4.63,4.63,0,0,0-2.1,4.86A4.55,4.55,0,0,0-105.53,86L-111,92.46a1.82,1.82,0,0,0-1.24-.19,1.86,1.86,0,0,0-1.44,2.19,1.85,1.85,0,0,0,2.19,1.44,1.85,1.85,0,0,0,1.44-2.18,1.85,1.85,0,0,0-.36-.76l5.49-6.51a4.54,4.54,0,0,0,2,.8l-.47,20a7.12,7.12,0,0,0-1,.12,7.09,7.09,0,0,0-5.51,8.37,7.08,7.08,0,0,0,8.37,5.51,7,7,0,0,0,4.15-2.57l28.88,17.86a7,7,0,0,0-.55,4.46,7.13,7.13,0,0,0,1,2.47l-12,8.87a1.79,1.79,0,0,0-1.59-.43,1.84,1.84,0,0,0-1.44,2.18,1.85,1.85,0,0,0,2.19,1.45,1.86,1.86,0,0,0,1.44-2.19,1.63,1.63,0,0,0-.13-.39l12-8.87a7.06,7.06,0,0,0,3.17,2.18l-5.86,26.18a6.87,6.87,0,0,0-2.21.1A7.1,7.1,0,0,0-78,180.89c0,.05,0,.11,0,.16l-19.19,5.55a1.85,1.85,0,0,0-2-.94,1.86,1.86,0,0,0-1.44,2.19,1.86,1.86,0,0,0,2.19,1.44,1.85,1.85,0,0,0,1.47-1.94l19.18-5.55a7.09,7.09,0,0,0,8.11,4.6A7.08,7.08,0,0,0-64.14,178a7.11,7.11,0,0,0-4.65-5.27l5.86-26.17a7.18,7.18,0,0,0,2.21-.1,7.09,7.09,0,0,0,5.51-8.37,7.15,7.15,0,0,0-1.12-2.62l32.77-28.6a7.05,7.05,0,0,0,6.22,1.73A7.08,7.08,0,0,0-14,106.88L14.2,131.26a10.62,10.62,0,0,0,4.58,16.21l-11,34.59a7.24,7.24,0,0,0-2.82,0,7.11,7.11,0,0,0-4.28,2.75l-16.85-10.36a4.56,4.56,0,0,0,.32-2.84,4.63,4.63,0,0,0-5.46-3.6,4.62,4.62,0,0,0-3.6,5.47,4.63,4.63,0,0,0,5.46,3.6,4.66,4.66,0,0,0,2.68-1.63L.1,185.81a7.08,7.08,0,0,0,3.69,9.78l-6.15,18.25a1.62,1.62,0,0,0-.58,0A1.86,1.86,0,0,0-4.39,216a1.86,1.86,0,0,0,2.19,1.44A1.84,1.84,0,0,0-.76,215.3a1.85,1.85,0,0,0-.87-1.22l6.16-18.24a7.06,7.06,0,0,0,8.92-6l20.7.74,3.29,33.63a7,7,0,0,0-3.68,2.05,7.06,7.06,0,0,0-1.94,4.84l-21,2.22a7,7,0,0,0-2-3.63,7.09,7.09,0,0,0-9.22-.46L-16.21,212a4.6,4.6,0,0,0-.33-6.33,4.62,4.62,0,0,0-6.54.17,4.63,4.63,0,0,0,.17,6.54,4.62,4.62,0,0,0,5.85.42L-1.28,230a7.08,7.08,0,0,0-.1,9.51l-19.45,21.55a7.08,7.08,0,0,0-9.28.87,7.08,7.08,0,0,0,.26,10,7.1,7.1,0,0,0,10-.26,7.1,7.1,0,0,0,.15-9.59L-.22,240.58A7.07,7.07,0,0,0,11,234.87l21-2.21a7.07,7.07,0,0,0,11.76,3.65l25.93,22.13a7.07,7.07,0,0,0,1,9.11,5.93,5.93,0,0,0,1,.77l-7,12a1.83,1.83,0,1,0,.71.41l0,0,7-12a7.08,7.08,0,1,0-1.62-11.47L44.76,235.12a7.08,7.08,0,0,0-.58-8.69L56.73,213.2a4.66,4.66,0,1,0-.84-.81L43.33,225.63A7,7,0,0,0,39,224.07l-3.27-33.43,9.69.35a4.5,4.5,0,0,0,.08.51,4.62,4.62,0,0,0,8,2.1l15,10a7.07,7.07,0,0,0,5,10.4L72,236.09a7.26,7.26,0,0,0-1.12.13,7.09,7.09,0,1,0,7.54,10.52l19.88,9.52a4.58,4.58,0,0,0-.14,2.39,4.5,4.5,0,0,0,.83,1.83l-10.07,8.93a1.82,1.82,0,0,0-1.46-.33,1.85,1.85,0,1,0,2.19,1.44,1.89,1.89,0,0,0-.21-.53l10.06-8.93a4.58,4.58,0,0,0,1.91,1.1l-4.83,31a4.8,4.8,0,0,0-1.06.09A4.61,4.61,0,0,0,92,296.77l-25.08-2.23a5.07,5.07,0,0,0-.09-.76,4.63,4.63,0,0,0-5.46-3.6,3.83,3.83,0,0,0-.75.23l-13.06-24a4.61,4.61,0,1,0-1.78.79,5.94,5.94,0,0,0,.75-.23l13.06,24a4.65,4.65,0,0,0-1.83,4.69,4.55,4.55,0,0,0,1,2L42.93,314.49a4.63,4.63,0,1,0,1.82,2.81,4.5,4.5,0,0,0-1-2l15.77-16.83a4.62,4.62,0,0,0,7.23-2.76l25.07,2.23a5.07,5.07,0,0,0,.09.76,4.62,4.62,0,0,0,.76,1.74L76.79,313.81a1.85,1.85,0,0,0-3,1.83,1.85,1.85,0,1,0,3.63-.74,1.6,1.6,0,0,0-.18-.49L93.2,301a4.59,4.59,0,0,0,4.21,1.27l.13,0L101.07,313a1.85,1.85,0,1,0,.74-.24L98.28,302a4.63,4.63,0,0,0-.52-8.71l4.82-31a4.75,4.75,0,0,0,1.06-.09,4.57,4.57,0,0,0,3-2.05l8.22,4.29a1.82,1.82,0,0,0,0,.87,1.87,1.87,0,1,0,.4-1.56L107,259.51a4.62,4.62,0,0,0-8.15-4.3L79,245.68a7.07,7.07,0,0,0-5.38-9.49L75,214.08a6,6,0,0,0,1.11-.13,7.09,7.09,0,0,0,5.66-6.81l22.49-2.08h0a7.08,7.08,0,0,0,12.7,2.69l29.71,17.75a7.08,7.08,0,0,0,4.81,10l-1.78,10.65a1.43,1.43,0,0,0-.29,0A1.84,1.84,0,0,0,148,248.4a1.85,1.85,0,1,0,3.63-.74,1.84,1.84,0,0,0-1.13-1.35l1.78-10.64a6.89,6.89,0,0,0,2.21-.1,7.08,7.08,0,0,0,2.55-12.8l9-17.12a7.08,7.08,0,0,0,9.67-6.16l32.5-1.63a2.89,2.89,0,0,0,0,.29,7.08,7.08,0,1,0,13.88-2.85,7,7,0,0,0-1.88-3.53l22.06-27a7,7,0,0,0,5.28,1l.47-.12,3.54,10.43a1.85,1.85,0,1,0,2.76,1.21ZM118.73,142.72l14.57-9.55a4.62,4.62,0,0,0,4.45,1.53,4.57,4.57,0,0,0,2.31-1.24l16.3,12.88a7.1,7.1,0,0,0-1.17,3.75l-46.9,4.07a.06.06,0,0,0,0,0,7.08,7.08,0,0,0-6.6-5.65l-.45-13.25.19,0a4.53,4.53,0,0,0,2.65-1.61ZM72.49,120.83a7.07,7.07,0,0,0-8.7,7.73L33,134.9a10.61,10.61,0,0,0-17.77-4.82l-28.16-24.37a7,7,0,0,0,1.11-5.45,7.08,7.08,0,0,0-6.81-5.65L-21.56,63h0A7.09,7.09,0,0,0-16,54.62a7,7,0,0,0-1.36-2.94L2.64,32.08a7.09,7.09,0,0,0,11.58-5.53l32.94-3.87a7.09,7.09,0,0,0,6.18,5.45l.18,22.55-.59.09a7.09,7.09,0,0,0-3.21,12.3L37.94,79.21a4.59,4.59,0,0,0-3.17-.49,4.64,4.64,0,1,0,4.11,1.17L50.67,63.76a7,7,0,0,0,8.64-1L80.72,80.29a7.07,7.07,0,0,0,2.81,10.2Z"/></g><g class="cls-8"><g class="cls-7"><path class="cls-4" d="M-32.48,152.56a5.85,5.85,0,0,0-1.69,4.18,5.86,5.86,0,0,0,5.92,5.81,5.88,5.88,0,0,0,5.81-5.93c0-.06,0-.11,0-.17l40.58-7.12a5.85,5.85,0,0,0,8.73,3.18l10.33,12.3a5.86,5.86,0,1,0,9.69,6.32l15.44,5.68c0,.05,0,.1,0,.16a1.54,1.54,0,1,0,1.52-1.55,1.5,1.5,0,0,0-1.24.65L47.15,170.4a6,6,0,0,0,.24-1.71,5.87,5.87,0,0,0-9-4.89L28.05,151.51a5.85,5.85,0,0,0-1-8.74l8.77-15.59a3.72,3.72,0,0,0,1.38.25,3.83,3.83,0,0,0,2.84-1.32l8.69,5.47a3.72,3.72,0,0,0-.32,1.56,3.87,3.87,0,1,0,1-2.54l-8.69-5.47a4.06,4.06,0,0,0,.32-1.56,3.83,3.83,0,1,0-6.19,3l-8.76,15.6a5.75,5.75,0,0,0-2.41-.5,5.87,5.87,0,0,0-5.81,5.92c0,.06,0,.12,0,.18l-40.58,7.11a5.89,5.89,0,0,0-1.4-2.33l15.54-18.64a3.73,3.73,0,0,0,2,.56,3.82,3.82,0,0,0,3.79-3.87A3.81,3.81,0,0,0-5,127.21l7.09-24.68a3.15,3.15,0,0,0,.52,0,3.83,3.83,0,0,0-.07-7.66,1.33,1.33,0,0,0-.21,0L-.8,80.9a3.82,3.82,0,0,0,2.44-3.6,3.83,3.83,0,0,0-3.06-3.71L.45,54.85a1.53,1.53,0,0,0-.26-3,1.52,1.52,0,0,0-1.51,1.54,1.51,1.51,0,0,0,1,1.42L-2.2,73.51h0A3.82,3.82,0,0,0-6,77l-22.27,1.47a3.82,3.82,0,0,0-3.77-3,3.82,3.82,0,0,0-3.79,3.87A3.83,3.83,0,0,0-34.72,82l-3,3.55a1.5,1.5,0,0,0-.67-.15,1.53,1.53,0,0,0-1.51,1.55,1.52,1.52,0,0,0,1.54,1.51A1.52,1.52,0,0,0-36.8,86.9a1.56,1.56,0,0,0-.28-.88l3-3.54a3.87,3.87,0,0,0,2.18.66,3.82,3.82,0,0,0,3.75-3.5l22.27-1.47a3.82,3.82,0,0,0,3.77,3l.21,0,3.13,14a3.81,3.81,0,0,0-.22,7l-7.1,24.67a4.36,4.36,0,0,0-.52,0,3.83,3.83,0,0,0-3.79,3.87,3.76,3.76,0,0,0,1,2.48L-25,151.83a5.83,5.83,0,0,0-3.35-1,5.86,5.86,0,0,0-2.88.79L-52,124.79a5.82,5.82,0,0,0,1.69-4.18,5.86,5.86,0,0,0-4.2-5.57l3.92-17.5A1.53,1.53,0,0,0-49.12,96a1.53,1.53,0,0,0-1.55-1.52A1.53,1.53,0,0,0-52.19,96a1.54,1.54,0,0,0,.83,1.34l-3.92,17.51a5,5,0,0,0-1-.07,5.85,5.85,0,0,0-5.8,5.92,5.85,5.85,0,0,0,5.92,5.8,5.86,5.86,0,0,0,2.88-.79Z"/><path class="cls-4" d="M228.59,25.64a5.41,5.41,0,0,0-1.21.14L219.23,1a3.8,3.8,0,0,0,2.09-3.43,3.8,3.8,0,0,0-2.19-3.41l2.32-7.82a3.31,3.31,0,0,0,.55,0,3.83,3.83,0,0,0,3.79-3.87,3.84,3.84,0,0,0-3.87-3.79A3.82,3.82,0,0,0,219.18-20l-4.12-3.18a1.51,1.51,0,0,0,.12-.61,1.53,1.53,0,0,0-1.55-1.51,1.53,1.53,0,0,0-1.52,1.55,1.53,1.53,0,0,0,1.55,1.51,1.49,1.49,0,0,0,.92-.32l4.13,3.17a3.8,3.8,0,0,0-.58,2.05,3.8,3.8,0,0,0,2.2,3.41L218-6.13a3.41,3.41,0,0,0-.55,0,3.82,3.82,0,0,0-3.79,3.87,3.83,3.83,0,0,0,3.86,3.79,5.6,5.6,0,0,0,.59-.07l8.15,24.74A5.85,5.85,0,0,0,223.93,35L203.67,54.49A5.86,5.86,0,0,0,195,56.1L139.84,32.69a6.08,6.08,0,0,0,.22-1.61,5.88,5.88,0,0,0-1.14-3.4L168.1-.25A5.88,5.88,0,0,0,171.82,1a5.87,5.87,0,0,0,5.8-5.92c0-.12,0-.24,0-.35l11.79-2.43A5.88,5.88,0,0,0,195-3.73a5.88,5.88,0,0,0,5.8-5.93A5.83,5.83,0,0,0,198-14.6L209.9-41.8a6.2,6.2,0,0,0,1.68.23,5.88,5.88,0,0,0,5.81-5.93,5.88,5.88,0,0,0-5.93-5.8,5.85,5.85,0,0,0-5.8,5.92,5.86,5.86,0,0,0,2.82,5l-11.93,27.2a5.55,5.55,0,0,0-1.68-.23,5.86,5.86,0,0,0-5.81,5.92c0,.12,0,.23,0,.35L177.29-6.77A5.88,5.88,0,0,0,172-10.69l-2.15-22.7a5.87,5.87,0,0,0,4.54-5.77A5.87,5.87,0,0,0,168.45-45a5.87,5.87,0,0,0-5.8,5.59l-26,1.38a3.83,3.83,0,0,0-3.79-3A3.83,3.83,0,0,0,129-37.18a3.83,3.83,0,0,0,3.87,3.79,3.81,3.81,0,0,0,3.75-3.45l25.2-1.33L67.18-13.39c-.09-.2-.18-.4-.28-.59L96.58-34.27a3.76,3.76,0,0,0,2.82,1.21,3.83,3.83,0,0,0,3.79-3.86,3.82,3.82,0,0,0-3.87-3.79,3.83,3.83,0,0,0-3.79,3.86,3.78,3.78,0,0,0,.39,1.61L66.24-14.94A5.82,5.82,0,0,0,61.7-17h-.31l-5.32-26.9-1.53.3,5.32,26.9a5.86,5.86,0,0,0-4,5.61,5.85,5.85,0,0,0,5.92,5.8,5.83,5.83,0,0,0,3.94-1.57L86.51,10.17a5.82,5.82,0,0,0,.75,7.14L73,35.25a5.69,5.69,0,0,0-3.06-.83A5.86,5.86,0,1,0,74,44.51L93.42,60a5.85,5.85,0,0,0,.65,6.92L70.18,94.73a5.84,5.84,0,0,0-2.63-.92l0-9.73a3.85,3.85,0,1,0-3.92-1.89l-5.69,4.48a3.79,3.79,0,0,0-2.64-1,3.85,3.85,0,0,0-1.93.56L41.57,72a3.81,3.81,0,0,0-2.9-6.35h0l-1.38-12a1.54,1.54,0,1,0-.77.08l1.38,12a3.78,3.78,0,0,0-2.14,1.33l-12.3-7.21a4.1,4.1,0,0,0,.27-1.45,3.83,3.83,0,1,0-3.79,3.87,3.78,3.78,0,0,0,2.91-1.42L35.15,68.1A3.62,3.62,0,0,0,35,70.54L17.85,77.32a1.53,1.53,0,1,0,.3.89c0-.06,0-.11,0-.17l17.19-6.78a3.9,3.9,0,0,0,1.2,1.38l-14.1,28.83a5.86,5.86,0,1,0,3.82,5.44v-.08l35.13-5.51a5.86,5.86,0,1,0,10-5.57L95.25,67.88a5.87,5.87,0,1,0-.86-9.14L75,43.29a5.83,5.83,0,0,0-.8-7.07L88.48,18.28a5.81,5.81,0,0,0,7-.72l12.37,11A3.83,3.83,0,1,0,111,26.82a3.78,3.78,0,0,0-2.39.89l-12.38-11a5.86,5.86,0,0,0-4.8-9.3A5.8,5.8,0,0,0,87.49,9l-20.75-17a5.92,5.92,0,0,0,.88-3.15,4.89,4.89,0,0,0-.05-.66l95.51-25a3.55,3.55,0,0,0,.21.44l-14.46,9.33a3.8,3.8,0,0,0-2.89-1.3,3.84,3.84,0,0,0-3.79,3.87A3.83,3.83,0,0,0,146-20.75a3.82,3.82,0,0,0,3.79-3.86,3.72,3.72,0,0,0-.33-1.53l14.44-9.31a5.87,5.87,0,0,0,4.36,2.2l2.15,22.7a5.87,5.87,0,0,0-4.54,5.77A5.92,5.92,0,0,0,167-1.38L137.85,26.55A5.86,5.86,0,1,0,133,36.87l-2,26.68a8.79,8.79,0,0,0-2.56,17.17l-2.78,12.4a5.43,5.43,0,0,0-.57,0,5.87,5.87,0,1,0,5.35,8.37L160,113.18c0,.06,0,.12,0,.19a1.55,1.55,0,1,0,.3-.92l-29.61-11.7a5.64,5.64,0,0,0,.28-1.85,4.89,4.89,0,0,0,0-.54l51.63-10.62a3.8,3.8,0,1,0-.25-1.29s0,.1,0,.15L130.68,97.22a5.93,5.93,0,0,0-3.57-3.76l2.78-12.41a8.32,8.32,0,0,0,1.24.09,8.79,8.79,0,0,0,1.35-17.47l2-26.69a5.83,5.83,0,0,0,4.71-2.86l55.14,23.41a5.69,5.69,0,0,0-.21,1.61,5.87,5.87,0,0,0,4.7,5.69l-2.79,42.08a5.86,5.86,0,1,0,6,7.53l11.35,2.61a1.52,1.52,0,1,0,.17-.76l-11.36-2.61a6.37,6.37,0,0,0,.08-1,5.85,5.85,0,0,0-4.7-5.69l2.79-42.09a5.86,5.86,0,0,0,5-3.62l15.67,5.24s0,.08,0,.12a1.53,1.53,0,1,0,1.52-1.55,1.51,1.51,0,0,0-1.27.69l-15.67-5.24a6,6,0,0,0,.2-1.54,5.84,5.84,0,0,0-1.14-3.41L225,36.1a5.87,5.87,0,1,0,3.58-10.46ZM26,105.3A5.83,5.83,0,0,0,23.46,102L37.58,73.15a4.09,4.09,0,0,0,1.17.19,3.81,3.81,0,0,0,1.92-.56L52.44,86.94a3.82,3.82,0,1,0,6.69,2.48,3.7,3.7,0,0,0-.51-1.83l5.69-4.48a3.83,3.83,0,0,0,2,1l0,9.73a5.86,5.86,0,0,0-5.26,5.89s0,.05,0,.07Z"/><path class="cls-4" d="M144.7,206.7a3.84,3.84,0,0,0-3.79,3.87,3.92,3.92,0,0,0,.3,1.42l-4.86,2.95a3.81,3.81,0,0,0-6.75,2.49.77.77,0,0,0,0,.15l-29.57,6.08a3.81,3.81,0,0,0-3.61-2.5l-.21,0L88.71,187a3.79,3.79,0,0,0,2.39-3l13,.66a1.53,1.53,0,0,0,3-.32,1.53,1.53,0,0,0-1.55-1.52,1.52,1.52,0,0,0-1.44,1.07l-13-.67a3.8,3.8,0,0,0-3.25-3.58l0-9.95a5.86,5.86,0,0,0,.46-11.59L89.89,128a5.87,5.87,0,0,0,4.38-9.14l11.52-9.66a3.89,3.89,0,1,0-.75-.9L93.52,118a5.87,5.87,0,0,0-8.91,7.55L60.54,147.63a5.85,5.85,0,1,0,1.05,1.14l24.08-22.12a5.71,5.71,0,0,0,2.67,1.26l-1.59,30.17a5.86,5.86,0,0,0-.08,11.68l.06,10a3.8,3.8,0,0,0-2.57,5.9l-5.91,4.93a1.51,1.51,0,0,0-.9-.29,1.52,1.52,0,1,0,1.4.88l5.9-4.92a3.76,3.76,0,0,0,2.72,1.09l.21,0,7.52,34.15a3.81,3.81,0,0,0-.87,6.65L88,238.9a1.85,1.85,0,0,0-.42-.06,1.54,1.54,0,1,0,1.55,1.52,1.52,1.52,0,0,0-.45-1.07l6.27-10.82a3.9,3.9,0,0,0,1.6.35,3.82,3.82,0,0,0,1.79-.48l8.58,12.5a1.53,1.53,0,0,0,1.18,2.53,1.53,1.53,0,0,0,0-3.06,1.58,1.58,0,0,0-.49.09l-8.59-12.5a3.78,3.78,0,0,0,1.36-3s0-.1,0-.15l29.56-6.08a3.85,3.85,0,0,0,.91,1.42l-7.32,10.3a3.88,3.88,0,0,0-1.74-.42,3.83,3.83,0,0,0,0,7.66l1.61,16.18a1.52,1.52,0,1,0,.77-.08l-1.6-16.18a3.81,3.81,0,0,0,1.9-6.49l7.32-10.31a3.71,3.71,0,0,0,1.75.42,3.83,3.83,0,0,0,3.79-3.87,3.76,3.76,0,0,0-.3-1.42l4.86-3a3.82,3.82,0,1,0,2.88-6.28Z"/><path class="cls-4" d="M113.94,290.42a3.75,3.75,0,0,0-2.45,1.83l-15.12-5.84a5.75,5.75,0,0,0,.06-2.86,5.87,5.87,0,0,0-7-4.41,5.78,5.78,0,0,0-3.1,1.86l-15-9.93a5.86,5.86,0,0,0-6.46-8.3l-7.65-21.9a5.84,5.84,0,1,0-1.47.52l7.65,21.89a6.2,6.2,0,0,0-1.29.9L48.44,251.87a3.82,3.82,0,1,0-6.83-3.26L26.3,246.18a3.68,3.68,0,0,0-.09-.87,3.86,3.86,0,1,0-.1,2l15.31,2.43a3.68,3.68,0,0,0,.09.87,3.83,3.83,0,0,0,4.58,2.88,3.69,3.69,0,0,0,1.56-.77l13.7,12.31a5.8,5.8,0,0,0-1,4.76,5.85,5.85,0,0,0,10.12,2.56l15,9.92a5.85,5.85,0,0,0-.59,2.62l-37.3,5.34a5.86,5.86,0,0,0-10.26-2l-16.84-9.87a5.77,5.77,0,1,0-.78,1.35l16.84,9.86a5.77,5.77,0,0,0,.39,5.3l-12.78,9.59a3.83,3.83,0,1,0,1.06,1.89,3.91,3.91,0,0,0-.37-1l12.79-9.59a5.88,5.88,0,0,0,5.62,1.75l.19-.06,9.9,26.4a3.8,3.8,0,1,0,1.09-.42l-9.89-26.39a5.83,5.83,0,0,0,3.26-5.3l37.31-5.34A5.86,5.86,0,0,0,96,287.5l15.11,5.84a3.87,3.87,0,0,0,0,1.66,3.83,3.83,0,1,0,2.88-4.58Z"/><path class="cls-4" d="M-32.25,11.54a5.86,5.86,0,0,0,5.81-5.92,2.45,2.45,0,0,0,0-.27l15.47-3A5.75,5.75,0,0,0-9.7,4.52l-8.2,8.8a1.53,1.53,0,0,0-.74-.18,1.54,1.54,0,0,0-1.52,1.54,1.54,1.54,0,0,0,1.55,1.52,1.53,1.53,0,0,0,1.52-1.55,1.48,1.48,0,0,0-.24-.8l8.19-8.8A5.86,5.86,0,0,0-5.38,6.37,5.86,5.86,0,0,0,.42.65L9.88.27a1.53,1.53,0,0,0,1.48,1.08A1.53,1.53,0,0,0,12.87-.2a1.53,1.53,0,0,0-1.54-1.52A1.54,1.54,0,0,0,9.85-.51L.39-.12A5.87,5.87,0,0,0-4-5.18l3-16.4A1.51,1.51,0,0,0,.35-23.11,1.53,1.53,0,0,0-1.2-24.63a1.53,1.53,0,0,0-1.51,1.55,1.52,1.52,0,0,0,.88,1.37L-4.78-5.32a5.63,5.63,0,0,0-.71,0A5.87,5.87,0,0,0-11.3.56a2.46,2.46,0,0,0,0,.28l-15.47,3a5.85,5.85,0,0,0-5.62-4,5.86,5.86,0,0,0-5.8,5.92A5.85,5.85,0,0,0-32.25,11.54Z"/><path class="cls-4" d="M-13.35,240.64a5.86,5.86,0,0,0,5.81-5.92,6.19,6.19,0,0,0-.23-1.56l18.82-8.24a5.86,5.86,0,0,0,10.31-5.53L27,215.78a5.86,5.86,0,1,0-.84-1.31l-5.64,3.62a5.85,5.85,0,0,0-9,0L-13.35,201a3.82,3.82,0,0,0,.39-1.69,3.83,3.83,0,0,0-3.87-3.79,3.83,3.83,0,0,0-3.79,3.87,3.83,3.83,0,0,0,3.87,3.79A3.82,3.82,0,0,0-14,201.92l24.93,17.13a5.87,5.87,0,0,0-.73,2.88,5.65,5.65,0,0,0,.23,1.56L-8.4,231.74a5.86,5.86,0,0,0-5.07-2.83,5.91,5.91,0,0,0-2.89.81l-14.27-18.31a5.86,5.86,0,0,0,1.68-4.16,5.87,5.87,0,0,0-5.92-5.81,5.87,5.87,0,0,0-5.81,5.92,5.86,5.86,0,0,0,5.92,5.81,5.81,5.81,0,0,0,2.9-.8l14.27,18.3a5.9,5.9,0,0,0-1.56,2.92L-47,230.65A3.82,3.82,0,0,0-50.89,227a3.83,3.83,0,0,0-3.79,3.87,3.83,3.83,0,0,0,3.87,3.79,3.82,3.82,0,0,0,3.65-2.86l27.89,2.94v.09a5.85,5.85,0,0,0,3,5l-10.06,24.86a5.51,5.51,0,0,0-1.52-.19,5.86,5.86,0,0,0-5.81,5.92,5.88,5.88,0,0,0,5.93,5.81,5.87,5.87,0,0,0,5.56-4.2l11.26,2.53a1.53,1.53,0,0,0,1.55,1.48,1.55,1.55,0,0,0,1.52-1.55A1.54,1.54,0,0,0-9.43,273a1.5,1.5,0,0,0-1.34.83L-22,271.31a5.22,5.22,0,0,0,.07-1,5.85,5.85,0,0,0-3-5l10.07-24.86A5.39,5.39,0,0,0-13.35,240.64Z"/></g></g><g class="cls-8"><path class="cls-4" d="M254.4,177.3a1.84,1.84,0,0,0-2-1.45l-3.54-10.44a7.09,7.09,0,1,0-7.7-1.62l-22,27a7.1,7.1,0,0,0-5.28-1,7,7,0,0,0-3.08,1.47l-12.84-13.18a4.63,4.63,0,0,0-3.12-7.48l-.54-29.44.27,0a4.63,4.63,0,1,0-1.87-9.07h0l-9.73-28.12a4.62,4.62,0,0,0,2.48-5.07,4.89,4.89,0,0,0-.34-1L203.8,86a4.63,4.63,0,0,0,4.51,1.59,4.56,4.56,0,0,0,2.46-1.39l4.38,3.42a1.85,1.85,0,1,0,1.29-1,1.82,1.82,0,0,0-.81.4l-4.38-3.42a4.63,4.63,0,1,0-8.41-1.6,4.89,4.89,0,0,0,.34,1L184.41,96.86a4.66,4.66,0,0,0-4.51-1.6,4.6,4.6,0,0,0-.66.2l-5.72-12.23a1.83,1.83,0,0,0,.7-1.84,1.85,1.85,0,1,0-1.44,2.19h0l5.71,12.22a4.62,4.62,0,0,0,3.24,8.54h0l9.73,28.11a4.62,4.62,0,0,0,1.56,8.74l.53,29.44-.26,0a4.62,4.62,0,0,0,1.86,9.06,4.54,4.54,0,0,0,1.85-.84l12.84,13.19a7,7,0,0,0-1.72,4.22l-32.5,1.63c0-.1,0-.2,0-.3a7.09,7.09,0,0,0-8.37-5.51,7,7,0,0,0-2,.77l-6.07-8.95a4.63,4.63,0,1,0-7.62-4.28l-18.24-.89a3.85,3.85,0,0,0-.08-.58,4.65,4.65,0,1,0,0,1.74l18.25.89a5.41,5.41,0,0,0,.07.58A4.64,4.64,0,0,0,157,185a5,5,0,0,0,1.16-.41l6.07,9a7.06,7.06,0,0,0,.47,11.37L155.66,222a7.07,7.07,0,0,0-8.36,2.47l-29.71-17.75a7.08,7.08,0,1,0-13.44-3.25l-22.49,2.08h0a7.09,7.09,0,0,0-12.5-3l-15-10a4.62,4.62,0,1,0-8.7-2.81l-9.86-.35-.9-9.17-1.54.15.87,9-20.54-.74a6.75,6.75,0,0,0-.13-1.09,7.08,7.08,0,0,0-4.07-5.05l11-34.61a10.48,10.48,0,0,0,4.6.08,10.61,10.61,0,0,0,8.36-12L64,129.71a7.09,7.09,0,0,0,8.22,4.95A7,7,0,0,0,75.49,133l20.13,18.35a7.08,7.08,0,1,0,12.8,4.33l46.9-4.07a.06.06,0,0,0,0,0,7.09,7.09,0,1,0,1.76-6.26l-16.31-12.87a4.57,4.57,0,0,0,.57-3.32,4.5,4.5,0,0,0-.78-1.77l10.18-8.73a1.84,1.84,0,0,0,2.93-1.84,1.85,1.85,0,0,0-3.63.74,1.75,1.75,0,0,0,.2.51l-10.18,8.73a4.75,4.75,0,0,0-1.12-.82l10.49-28.68a4.6,4.6,0,1,0-1.1-.4l-10.49,28.68a4.62,4.62,0,0,0-4.52,1.48L120.82,118a1.8,1.8,0,0,0,.13-1.13,1.87,1.87,0,1,0-.59,1.76l12.52,9.17a4.54,4.54,0,0,0-.21,4.43l-14,9.14-14-8.74a4.62,4.62,0,1,0-4.63,2.67l.46,13.25-.6.09a7,7,0,0,0-3.25,1.63L76.54,131.88A7.06,7.06,0,0,0,74,121.37L85,91a7,7,0,0,0,3.1.06,7.08,7.08,0,0,0,3-12.48L111.7,47.87a7.07,7.07,0,0,0,4.87.76,6.85,6.85,0,0,0,1.37-.44l8.65,16.27a4.63,4.63,0,1,0,1.74-.75,4.16,4.16,0,0,0-.71.21L119,47.64a7.08,7.08,0,0,0,2.76-3.36l33,9a7,7,0,0,0,0,2.53A7.08,7.08,0,0,0,168,57.49l13.38,5.32a4.55,4.55,0,0,0,0,2.08,4.62,4.62,0,1,0,.48-3.17l-13.37-5.31a7.11,7.11,0,0,0,.16-3.5,6.37,6.37,0,0,0-.21-.78l26.41-12a7.08,7.08,0,1,0-.86-2.21,5.09,5.09,0,0,0,.21.79l-26.41,12a7.08,7.08,0,0,0-12.67,1l-32.94-9a7.13,7.13,0,0,0-.06-2.52,7.06,7.06,0,0,0-4-5l7.06-21.06a7.09,7.09,0,0,0,8.44-8.35A7.13,7.13,0,0,0,133,4.13L149.78-6a4.61,4.61,0,0,0,4.56,1.67,4.51,4.51,0,0,0,2.39-1.31L164.66,4a7.05,7.05,0,0,0-2.15,6.63,6.92,6.92,0,0,0,.46,1.44L147,20.22a1.85,1.85,0,1,0-1.05,3A1.86,1.86,0,0,0,147.41,21l0-.1,16-8.11a7.08,7.08,0,0,0,7.16,3.45l3.08,14.93a1.87,1.87,0,1,0,.76-.15l-3.07-14.94a7.09,7.09,0,0,0,5.26-6.4L208,8.22a1.77,1.77,0,0,0,0,.32,7.1,7.1,0,1,0-.13-1.87l-31.5,1.47a1.77,1.77,0,0,0-.05-.32,7.07,7.07,0,0,0-11.13-4.28l-8-9.75a4.63,4.63,0,0,0,.71-3.54,4.43,4.43,0,0,0-.52-1.37l25.71-19.47a4.64,4.64,0,0,0,4.24,1.3,4.64,4.64,0,0,0,3.6-5.47,4.64,4.64,0,0,0-5.47-3.6,4.64,4.64,0,0,0-3.6,5.47,4.94,4.94,0,0,0,.53,1.37L156.72-12a4.62,4.62,0,0,0-4.24-1.3,4.61,4.61,0,0,0-3.6,5.46,4.3,4.3,0,0,0,.3.94L132.42,3.13a7.09,7.09,0,0,0-7.18-2.8,7.47,7.47,0,0,0-1.14.34L111.86-22.78a7.1,7.1,0,0,0,3-7.31,7.09,7.09,0,0,0-8.37-5.51A7.07,7.07,0,0,0,101-27.24a7.09,7.09,0,0,0,8.37,5.52,7.15,7.15,0,0,0,1.14-.34L122.72,1.39a7.08,7.08,0,0,0,1,12.31l-7.06,21.06a7.22,7.22,0,0,0-2.93,0,7.09,7.09,0,0,0-3,12.48L90.11,78a7,7,0,0,0-8.4,1.13L60.3,61.57a7.09,7.09,0,0,0-5.22-10.91L54.9,28.12l.59-.09a7.08,7.08,0,0,0,3.29-12.22l20.31-28.5a7,7,0,0,0,4.87.75A7,7,0,0,0,87-13.4l7.55,8.24a1.81,1.81,0,0,0-.31,1.44,1.86,1.86,0,0,0,2.19,1.44A1.85,1.85,0,0,0,97.9-4.47a1.85,1.85,0,0,0-2.19-1.44,1.82,1.82,0,0,0-.56.22L87.6-13.92a7.1,7.1,0,0,0,1.88-6.39,7.09,7.09,0,0,0-8.37-5.51,7.1,7.1,0,0,0-5.52,8.37,7,7,0,0,0,2.23,3.85L57.51,14.9a7,7,0,0,0-8.18.92L36,3.23a4.64,4.64,0,0,0,.8-3.66A4.63,4.63,0,0,0,31.33-4a4.61,4.61,0,0,0-3.6,5.46A4.63,4.63,0,0,0,33.19,5a4.76,4.76,0,0,0,2-1L48.53,16.66A7.09,7.09,0,0,0,47,21.13L14,25A7.1,7.1,0,0,0,3.14,20.74l-7.2-8.88A4.66,4.66,0,0,0-2.87,7.73a4.63,4.63,0,0,0-5.47-3.6,4.62,4.62,0,0,0-3.6,5.46,4.62,4.62,0,0,0,5.46,3.6A4.55,4.55,0,0,0-5,12.59l7.21,8.89A7.08,7.08,0,0,0,.07,26.1l-15.16.2c0-.1,0-.19-.05-.29a4.62,4.62,0,0,0-5.46-3.6,4.62,4.62,0,0,0-3.6,5.46,4.61,4.61,0,0,0,5.46,3.6,4.63,4.63,0,0,0,3.67-4l15.15-.2A6.87,6.87,0,0,0,1.56,31L-18.5,50.57a7.07,7.07,0,0,0-5.91-1.47,7.06,7.06,0,0,0-4.67,3.34L-59.54,38.71a7.09,7.09,0,0,0,.21-3.61,7.09,7.09,0,0,0-8.37-5.52,7,7,0,0,0-4.39,2.91L-96.35,19.34a7.11,7.11,0,0,0,.38-4.1,7.09,7.09,0,0,0-8.37-5.51,7.07,7.07,0,0,0-5.52,8.36,7.09,7.09,0,0,0,8.37,5.52A7,7,0,0,0-97.1,20.7l24.26,13.15a7.11,7.11,0,0,0-.38,4.1,7.09,7.09,0,0,0,8.37,5.51,7,7,0,0,0,4.67-3.34l30.46,13.74a7.09,7.09,0,0,0-.21,3.61,7.1,7.1,0,0,0,6.82,5.66l2.92,31.62h0a7.08,7.08,0,0,0-5.51,8.37,7.15,7.15,0,0,0,1.12,2.62l-32.77,28.59a7.08,7.08,0,0,0-6.22-1.72,7,7,0,0,0-4.15,2.57l-28.88-17.86a7,7,0,0,0,.55-4.46,7.09,7.09,0,0,0-6.19-5.62l.46-20a3.65,3.65,0,0,0,.46-.07,4.62,4.62,0,0,0,3.65-3.9l11.88.62a.22.22,0,0,0,0,.08,1.84,1.84,0,0,0,2.18,1.44,1.85,1.85,0,0,0,1.45-2.19,1.86,1.86,0,0,0-2.19-1.44,1.86,1.86,0,0,0-1.41,1.33l-11.88-.62a5.18,5.18,0,0,0-.09-.78,4.63,4.63,0,0,0-5.47-3.6l-.44.11L-113,57.79a4.63,4.63,0,0,0,2.1-4.86,4.6,4.6,0,0,0-.3-.93l10.4-5.66A1.86,1.86,0,0,0-99,47a1.85,1.85,0,0,0,1.44-2.18,1.86,1.86,0,0,0-2.19-1.45,1.86,1.86,0,0,0-1.44,2.19c0,.05,0,.1,0,.15l-10.4,5.66a4.62,4.62,0,0,0-4.79-2A4.63,4.63,0,0,0-120,54.79a4.64,4.64,0,0,0,5.47,3.61c.15,0,.3-.07.44-.12l9.35,20.47a4.63,4.63,0,0,0-2.1,4.86A4.55,4.55,0,0,0-105.53,86L-111,92.46a1.82,1.82,0,0,0-1.24-.19,1.86,1.86,0,0,0-1.44,2.19,1.85,1.85,0,0,0,2.19,1.44,1.85,1.85,0,0,0,1.44-2.18,1.85,1.85,0,0,0-.36-.76l5.49-6.51a4.54,4.54,0,0,0,2,.8l-.47,20a7.12,7.12,0,0,0-1,.12,7.09,7.09,0,0,0-5.51,8.37,7.08,7.08,0,0,0,8.37,5.51,7,7,0,0,0,4.15-2.57l28.88,17.86a7,7,0,0,0-.55,4.46,7.13,7.13,0,0,0,1,2.47l-12,8.87a1.79,1.79,0,0,0-1.59-.43,1.84,1.84,0,0,0-1.44,2.18,1.85,1.85,0,0,0,2.19,1.45,1.86,1.86,0,0,0,1.44-2.19,1.63,1.63,0,0,0-.13-.39l12-8.87a7.06,7.06,0,0,0,3.17,2.18l-5.86,26.18a6.87,6.87,0,0,0-2.21.1A7.1,7.1,0,0,0-78,180.89c0,.05,0,.11,0,.16l-19.19,5.55a1.85,1.85,0,0,0-2-.94,1.86,1.86,0,0,0-1.44,2.19,1.86,1.86,0,0,0,2.19,1.44,1.85,1.85,0,0,0,1.47-1.94l19.18-5.55a7.09,7.09,0,0,0,8.11,4.6A7.08,7.08,0,0,0-64.14,178a7.11,7.11,0,0,0-4.65-5.27l5.86-26.17a7.18,7.18,0,0,0,2.21-.1,7.09,7.09,0,0,0,5.51-8.37,7.15,7.15,0,0,0-1.12-2.62l32.77-28.6a7.05,7.05,0,0,0,6.22,1.73A7.08,7.08,0,0,0-14,106.88L14.2,131.26a10.62,10.62,0,0,0,4.58,16.21l-11,34.59a7.24,7.24,0,0,0-2.82,0,7.11,7.11,0,0,0-4.28,2.75l-16.85-10.36a4.56,4.56,0,0,0,.32-2.84,4.63,4.63,0,0,0-5.46-3.6,4.62,4.62,0,0,0-3.6,5.47,4.63,4.63,0,0,0,5.46,3.6,4.66,4.66,0,0,0,2.68-1.63L.1,185.81a7.08,7.08,0,0,0,3.69,9.78l-6.15,18.25a1.62,1.62,0,0,0-.58,0A1.86,1.86,0,0,0-4.39,216a1.86,1.86,0,0,0,2.19,1.44A1.84,1.84,0,0,0-.76,215.3a1.85,1.85,0,0,0-.87-1.22l6.16-18.24a7.06,7.06,0,0,0,8.92-6l20.7.74,3.29,33.63a7,7,0,0,0-3.68,2.05,7.06,7.06,0,0,0-1.94,4.84l-21,2.22a7,7,0,0,0-2-3.63,7.09,7.09,0,0,0-9.22-.46L-16.21,212a4.6,4.6,0,0,0-.33-6.33,4.62,4.62,0,0,0-6.54.17,4.63,4.63,0,0,0,.17,6.54,4.62,4.62,0,0,0,5.85.42L-1.28,230a7.08,7.08,0,0,0-.1,9.51l-19.45,21.55a7.08,7.08,0,0,0-9.28.87,7.08,7.08,0,0,0,.26,10,7.1,7.1,0,0,0,10-.26,7.1,7.1,0,0,0,.15-9.59L-.22,240.58A7.07,7.07,0,0,0,11,234.87l21-2.21a7.07,7.07,0,0,0,11.76,3.65l25.93,22.13a7.07,7.07,0,0,0,1,9.11,5.93,5.93,0,0,0,1,.77l-7,12a1.83,1.83,0,1,0,.71.41l0,0,7-12a7.08,7.08,0,1,0-1.62-11.47L44.76,235.12a7.08,7.08,0,0,0-.58-8.69L56.73,213.2a4.66,4.66,0,1,0-.84-.81L43.33,225.63A7,7,0,0,0,39,224.07l-3.27-33.43,9.69.35a4.5,4.5,0,0,0,.08.51,4.62,4.62,0,0,0,8,2.1l15,10a7.07,7.07,0,0,0,5,10.4L72,236.09a7.26,7.26,0,0,0-1.12.13,7.09,7.09,0,1,0,7.54,10.52l19.88,9.52a4.58,4.58,0,0,0-.14,2.39,4.5,4.5,0,0,0,.83,1.83l-10.07,8.93a1.82,1.82,0,0,0-1.46-.33,1.85,1.85,0,1,0,2.19,1.44,1.89,1.89,0,0,0-.21-.53l10.06-8.93a4.58,4.58,0,0,0,1.91,1.1l-4.83,31a4.8,4.8,0,0,0-1.06.09A4.61,4.61,0,0,0,92,296.77l-25.08-2.23a5.07,5.07,0,0,0-.09-.76,4.63,4.63,0,0,0-5.46-3.6,3.83,3.83,0,0,0-.75.23l-13.06-24a4.61,4.61,0,1,0-1.78.79,5.94,5.94,0,0,0,.75-.23l13.06,24a4.65,4.65,0,0,0-1.83,4.69,4.55,4.55,0,0,0,1,2L42.93,314.49a4.63,4.63,0,1,0,1.82,2.81,4.5,4.5,0,0,0-1-2l15.77-16.83a4.62,4.62,0,0,0,7.23-2.76l25.07,2.23a5.07,5.07,0,0,0,.09.76,4.62,4.62,0,0,0,.76,1.74L76.79,313.81a1.85,1.85,0,0,0-3,1.83,1.85,1.85,0,1,0,3.63-.74,1.6,1.6,0,0,0-.18-.49L93.2,301a4.59,4.59,0,0,0,4.21,1.27l.13,0L101.07,313a1.85,1.85,0,1,0,.74-.24L98.28,302a4.63,4.63,0,0,0-.52-8.71l4.82-31a4.75,4.75,0,0,0,1.06-.09,4.57,4.57,0,0,0,3-2.05l8.22,4.29a1.82,1.82,0,0,0,0,.87,1.87,1.87,0,1,0,.4-1.56L107,259.51a4.62,4.62,0,0,0-8.15-4.3L79,245.68a7.07,7.07,0,0,0-5.38-9.49L75,214.08a6,6,0,0,0,1.11-.13,7.09,7.09,0,0,0,5.66-6.81l22.49-2.08h0a7.08,7.08,0,0,0,12.7,2.69l29.71,17.75a7.08,7.08,0,0,0,4.81,10l-1.78,10.65a1.43,1.43,0,0,0-.29,0A1.84,1.84,0,0,0,148,248.4a1.85,1.85,0,1,0,3.63-.74,1.84,1.84,0,0,0-1.13-1.35l1.78-10.64a6.89,6.89,0,0,0,2.21-.1,7.08,7.08,0,0,0,2.55-12.8l9-17.12a7.08,7.08,0,0,0,9.67-6.16l32.5-1.63a2.89,2.89,0,0,0,0,.29,7.08,7.08,0,1,0,13.88-2.85,7,7,0,0,0-1.88-3.53l22.06-27a7,7,0,0,0,5.28,1l.47-.12,3.54,10.43a1.85,1.85,0,1,0,2.76,1.21ZM118.73,142.72l14.57-9.55a4.62,4.62,0,0,0,4.45,1.53,4.57,4.57,0,0,0,2.31-1.24l16.3,12.88a7.1,7.1,0,0,0-1.17,3.75l-46.9,4.07a.06.06,0,0,0,0,0,7.08,7.08,0,0,0-6.6-5.65l-.45-13.25.19,0a4.53,4.53,0,0,0,2.65-1.61ZM72.49,120.83a7.07,7.07,0,0,0-8.7,7.73L33,134.9a10.61,10.61,0,0,0-17.77-4.82l-28.16-24.37a7,7,0,0,0,1.11-5.45,7.08,7.08,0,0,0-6.81-5.65L-21.56,63h0A7.09,7.09,0,0,0-16,54.62a7,7,0,0,0-1.36-2.94L2.64,32.08a7.09,7.09,0,0,0,11.58-5.53l32.94-3.87a7.09,7.09,0,0,0,6.18,5.45l.18,22.55-.59.09a7.09,7.09,0,0,0-3.21,12.3L37.94,79.21a4.59,4.59,0,0,0-3.17-.49,4.64,4.64,0,1,0,4.11,1.17L50.67,63.76a7,7,0,0,0,8.64-1L80.72,80.29a7.07,7.07,0,0,0,2.81,10.2Z"/></g></g></g></svg>